<svg width="145" height="108" viewBox="0 0 145 108" fill="none" xmlns="http://www.w3.org/2000/svg"><path opacity=".1" d="M121.713 9.52a.172.172 0 00-.019-.063c0 .018-.009.027-.009.045.009 0 .028.019.028.019l-.019-.019c-.009.01-.009.019-.018.019h.037zm21.908 58.15c.352-.301.666-.574.981-.847-.157-.118-.444-.264-.426-.328.102-.373.269-.728.426-1.11-.657-.391-1.212-1.01-2.12-.983-.222.01-.592-.19-.657-.382-.25-.71-1.018-1.046-1.249-1.747 1.259-1.174 2.156-2.466 1.499-4.304-.074-.219.084-.51.084-.765.018-.637-.436-1.337-1.009-1.529-.574-.19-1.13-.218-1.481.4-.333-.218-.685-.418-1-.645-.833-.6-1.333-.583-2.221.073.046.209.083.4.12.582-.361-.01-.722-.21-.703-.273.24-.637-.445-1.183-.13-1.83.12-.245-.018-.609-.037-.918-.703 1.41-1.546 2.593-3.295 2.82-.213-.418-.268-.782.046-1.173.574-.7.815-1.51.917-2.393.055-.52.324-.92.897-1.056.297-.073.583-.191.843-.355.314-.2.518-.473.129-.919-.351.11-.74.227-1.12.346a32.39 32.39 0 00-.268-.464c-.306.227-.537.41-.768.582-.648-.691-1.648-1.101-1.407-2.238-.389-.037-.842.773-1.009-.264.814-.255 1.684-.364 2.36-.783.694-.437 1.333-.446 2.073-.236.028-.073.065-.137.093-.21-.426-.218-.842-.437-1.268-.655.046-.118.092-.227.139-.346-1.222.592-2.444 1.183-3.73 1.811-.278-.455-.519-.819-.759-1.22-.139.747-.593 1.093-1.315 1.21-.444-.754.334-.9.574-1.264-.24-.4-.472-.782-.722-1.192.657.046.722-1.12 1.528-.646.323 1.365.323 1.365.971 1.674.852-1.083-.055-1.974-.388-2.875-.241-.628-.361-.856.213-1.247.536-.373.842-1.01.796-1.756-.445.318-.843.61-1.306.946-.203-.61-.009-1 .324-1.347 1.472-1.547 2.888-3.148 4.434-4.622.907-.865 1.203-2.184 2.314-2.867.111-.928.898-1.501 1.249-2.32.139-.328.371-.72.667-.865 1.166-.555 1.138-1.656 1.508-2.757-.324.218-.518.355-.703.482-.056-.837-.213-1.692.389-2.448-.222-.236-.37-.537-.583-.582-.232-.055-.75.118-.75.2-.009.373-.259.792.241 1.12.536.354.536.755.074 1.11-.232.181-.519.309-.75.49-.778.647-1.527 1.339-2.333 1.957-.231.182-.601.192-1.129.346.13-.546.259-.855.259-1.155 0-.328-.129-.665-.203-.992.046.009.083.027.129.036.158-.664.315-1.329.537-2.23.259-.282 1.222-.318 1.185-1.246h.009l-.009-.01v.01c-.278.964-1.009.491-1.796.61.667-1.02 1.231-1.857 1.768-2.712.241-.382.574-.792.583-1.192.028-.801-.129-1.602-.213-2.375.241-.164.463-.31.676-.446.305-.2.944-.264.315-.82-.019-.018.12-.163.139-.263.092-.391.222-.783.222-1.174 0-.683-.648-1.693-1.777-2.876.074.355.111.564.157.792-1.111-.228-1.435-1.12-1.823-1.884-.482-.136-.917-.264-1.352-.39-.166-.074-.324-.201-.5-.22-1.878-.263-3.646.137-5.377.829-1.027.41-2.12.682-3.129 1.128-.546.237-1.332.073-1.638.828-.018.046-.463.028-.564-.082-.204-.218-.315-.527-.472-.8-.519.373-.519.373-.287 1.173-.315.1-.639.2-.963.3-.12-.218-.222-.4-.305-.545-.343.036-.621.054-.963.09.268-1.646 1.24-2.793 2.212-3.93-.333.045-.666.09-.99.136-.333-.719.074-1.256.379-1.82.343-.628.796-1.274.861-1.956.074-.71-.167-1.484-.398-2.193-.259-.801-.639-1.538-1.675-1.648-1.176-.127-1.407-.382-1.666-1.71-.593-.11-1.213-.31-1.842-.319-.954-.018-1.916.082-2.869.173-1.731.164-3.425.519-5.017 1.247-.204.09-.444.1-.666.164-1.481.409-2.962.81-4.443 1.219-.454.127-1.046.11-1.324.4-.463.483-.888.383-1.407.292-.194-.037-.407.072-.638.127.129.264.213.446.351.737-.721.273-1.388.528-2.1.8.009-.208.018-.345.027-.536-.907.164-1.472.837-2.045 1.392-.519.492-.907.61-1.49.228-.112-.073-.278-.082-.445-.137-.194.291-.36.546-.546.828.333-.018.574-.036.88-.045-.667 1.01-2.49 2.002-3.768 2.111l-.083-.874c-.814.61-1.638 1.22-2.499 1.866.26.127.398.191.555.273-.73.983-1.767.155-2.499.673-.157-.573.435-1.137-.12-1.638-.602.665-1.296 1.074-2.175 1.338-.25-1.174.657-1.83.953-2.548-.176-.455-.5-.865-.407-1.156.083-.282.592-.436.842-.6.176-.883-.268-1.547-.731-2.23-.565-.1-1.11-.336-1.74-.063-.222.1-.666-.082-.907-.273-.518-.41-1-.474-1.592-.146-.463.255-.99.227-1.407-.082-.389-.282-.796-.391-1.175-.182-.324.182-.546.519-.685.664-.445.028-.833-.045-1.093.091-.434.246-.758.674-1.184.947-.435.282-.944.464-1.416.691-.639.31-1.102.756-1.204 1.502-.018.155-.222.291-.36.464-.519-.373-.982-.346-1.445.064a32.849 32.849 0 01-1.87 1.51c-.628.473-1.276.938-1.924 1.374-.361.237-.74.3-1-.182-.63 1.484-.63 1.484-1.101 1.438-.111-.446.777-.71.351-1.183-.573.746-1.147 1.483-1.629 2.111-.481-.246-.833-.418-1.184-.591-.278.291-.51.537-.75.791.305.492.12.92-.194 1.329-.648-.464-.62.373-.982.5-.305.11-.555.364-1.082.728.194-.682.277-1.11.453-1.51.056-.118.453-.073.555-.2.195-.264.287-.6.463-.992-1.398.09-1.444.045-1.462-1.165 0-.1-.037-.236-.102-.3-.583-.51-.213-.91.139-1.447.38.255 1 .21.648.937-.037.082.046.31.102.319.12.027.296-.01.379-.091.342-.355.648-.728 1.027-1.165-.102-.464-.231-1.092-.398-1.866-.324.428-.518.701-.73.983-.778-.755-.76-.737-.316-1.538.195-.346.287-.755.361-.946-.675-1.147-1.582-.6-2.6-.537.38-.419.62-.682.907-.992-.39-.391-.278-.846-.13-1.292.12-.364.555-.755.111-1.074-.305-.218-.777-.227-1.185-.282-.175-.018-.36.118-.546.155-.768.173-1.518.2-2.027-.483-.63.137-.833 1.247-1.675.537-.065.437-.194.82-.713.692-.925-.228-1.647.182-2.35.664-2.324 1.61-4.647 3.213-6.97 4.823-.343.237-.676.482-1.037.746.24.128.407.219.685.364-.25.128-.407.273-.5.246-.703-.255-1.175-.018-1.536.592-.065.109-.222.173-.352.236-2.628 1.22-4.748 3.13-6.942 4.941-.407.337-.536.956-1.175 1.165.472.11.935.228 1.583.382-.602.292-1.01.483-1.444.701-.574-.5-1.083-.4-1.676.11-.86.745-1.823 1.373-2.74 2.056-.564.419-.629.41-1.054-.255-.491.155-.982.31-1.472.473.055.082.111.155.166.237-.407 1.265-1.379 2.03-2.582 2.557v.992c-1.009.446-.972.455-1.388 1.638-.102.291-.519.537-.842.664-.334.128-.732.082-1.185.128-.49.782-1 1.61-1.537 2.411-.185.282-.453.51-.722.737-.462.391-.944.755-1.416 1.138-.148-.738-.388-1.42-1.12-1.802.648-.938.648-.938 1.713-.628.879-.674 1.194-1.838 2.175-2.439a.983.983 0 00.416-.528c.222-.728.76-1.119 1.416-1.41.102-.046.204-.091.352-.164-.398-.246-.898-.191-.787-.482.519-.473.861-.774 1.194-1.083.546-.5.889-1.156 1.61-1.547.556-.3 1.093-.947 1.269-1.538.166-.573.426-1.001.824-1.329-.584-.737-.39-1.465-.269-2.202.87-.109 1.213.437 1.444 1.029.518-.656.981-1.238 1.351-1.711-.194-.383-.37-.628-.407-.883-.018-.146.148-.382.296-.473.565-.346.639-.519.195-.82-.49-.327-1.018-.6-1.574-.927-.139.273-.268.518-.388.746-1.167-.31-1.343-.246-1.981.655-.13.182-.269.373-.435.528a1297.6 1297.6 0 01-4.249 4.058c0 .674.796.883.408 1.402-.334.446-.768.082-1.157.018-.065-.01-.14.01-.352.018-1.185 1.256-2.555 2.512-3.656 3.95-.63.828-1.916 1.255-1.814 2.62.018.273-.454.574-.657.883-.167.246-.352.51-.389.783-.194 1.346-1.259 2.147-2.009 3.14-.61.809-1.554 1.419-1.397 2.629.018.118-.213.264-.324.4-.083.11-.26.273-.231.319.407.646-.186.855-.51 1.192-.13.127-.342.31-.323.437.13.691-.398.964-.769 1.383-.416.464-1.027.846-1.055 1.583 0 .1-.074.255-.157.282-.935.3-.842.929-.602 1.648.065.19 0 .436-.046.655-.083.418-.019.719.296 1.092.528.618.231 1.228-.602 1.356-.416.063-.86.009-1.314.009-.037.373 0 .782-.139 1.11-.13.31-.462.537-.73.837.082.164.184.355.305.573-.232.255-.454.51-.611.674.185 1.22-.565 1.965-1.111 2.793.528.437 1.138.774 1.083 1.675-.037.628.324 1.201 1.185 1.338-.102-.337-.195-.628-.26-.856.39-.346.704-.628 1.037-.928-.204-.391-.796-.71-.389-1.147.593.146 1.093.264 1.583.383-.092.236-.157.382-.268.673.703-.2 1.11-.01 1.351.491-.111.419-.231.838-.342 1.247l.212-.064.99 1.584c.38-.046.788-.091 1.167-.137.148-.236.296-.464.528-.846l.638 1.283c.102.01.213.018.315.027-.74-1.146.398-1.892.305-2.775.417-.31.917-.492 1.046-.81.26-.646.787-.746 1.315-.956.583-.227 1.129-.39 1.499-1.073.296-.546.833-1.284 1.75-1.12.305.81-.695.956-.787 1.702.38-.064.74-.018.925-.173.63-.528 1.472-.873 1.685-1.793.046-.2.231-.4.407-.537.787-.646 1.647-1.21 2.379-1.92.407-.39.99-.71 1.055-1.374.287-.136.722-.218.824-.445.259-.583.703-.72 1.24-.774-.093.537-.185 1.065-.278 1.583.482.537.944.5 1.407.037.213-.219.472-.41.63-.665.657-1.128 1.749-1.838 2.665-2.72.019-.019.13.054.25.109-.463.846-.842 1.747-1.398 2.53-.694.982-1.564 1.838-2.276 2.811-.454.62-.926 1.156-1.602 1.52-.037.018-.027.127-.046.237.287-.064.555-.119.796-.164-.046 1.12-1.046 1.793-1.064 2.857 0 .119-.176.328-.278.337-.51.018-.435.419-.565.71-.157.364-.416.682-.62 1.028-.074.118-.176.273-.157.391.157.865-.787 1.202-.935 1.911-.86.082-.583 1.12-1.203 1.393-.472 1.337-.648 2.802-1.777 3.84-.102.1-.13.273-.213.4-.232.337-.481.664-.639.892-.204.628-.25 1.247-.574 1.665-.601.774-.685 1.656-.851 2.548a3.607 3.607 0 01-.352 1.065c-.435.828-.99 1.61-1.36 2.466-.38.865-.611 1.784-.861 2.694-.037.136.138.336.277.655.296-.765.63-1.265 1.296-1.565.12.546-.102 1.046.343 1.528.444.492 1.564.292 1.425 1.338 0 .01.065.027.12.055h.926v.828c.324-.182.574-.319.824-.464.213.31.38.564.546.81.065.09.11.2.166.29-.823.874-.833.893-.351 1.502h-.01c-.074.965-.953.928-1.666 1.156.63.582 1.787-.482 2.046.828h1.851c.111.146.25.346.407.555.667-.173 1.287-.337 1.74-.455.232.364.352.774.62.901.158.073.547-.273.806-.455.203-.136.38-.31.592-.491.38.436.444.755.102 1.174-.361.445-.463 1-.324 1.829 1-1.229 1.36-2.512 1.907-3.804.13.009.407.027.907.055-.695.591-.047 1.701-1.194 1.82 0 .982-.01.973-.732 2.238-.185.337-.398.764-.333 1.11.167.947-.259 1.82-1.175 2.166-.056.018-.093.11-.176.228.037.245.083.536.13.891.73-.737 1.194-1.574 2.1-2.147.093.655.176 1.183.223 1.547-.223.455-.39.791-.546 1.119.425-.273.694.164.944.282.694-.537 1.323-1.02 2.156-1.656-.277 1.083-1.49 1.32-1.37 2.366.334.045.667.082.99.127-.082.455-.138.82-.221 1.293.694-.474.768-1.365 1.684-1.502-.083.482-.185.874-.194 1.256-.01.355.24.8.092 1.064-.287.52.176.72.37 1.083l-.944.373c.241.273.491.556.76.865.23-.082.471-.21.73-.264.704-.155 1.195.218 1.334.974.305-.191.666-.346.916-.592.444-.446.88-.382 1.333-.073.25.173.453.392.694.61.935-.428 2.092.364 2.878-.7.223.318.334.627.565.773.49.31.463.828.444 1.21-.028.801-.25 1.593-.38 2.384-.046.283-.073.574-.101.829.36.118.62.2.889.282-.158.691-1.093 1.055-.593 1.883.25-.027.49-.063.768-.091.047.419.084.765.14 1.22.314-.173.545-.301.767-.419-.166.018-.342.046-.527.064.046-1.474.694-2.84 1.795-3.576-.101.49-.138.828-.24 1.146-.204.628-.444 1.238-.667 1.866.12-.11.241-.219.361-.337.056.091.111.191.167.282l-.111 1.156c.083 0 .157 0 .24-.009-.037-.383-.083-.774-.12-1.156.296.018.593.027.852.045.574 1.02-.454 1.775-.361 2.976.407-.719.796-.983 1.407-.992.305 0 .657-.318.897-.573.26-.273.39-.655.62-.947.325-.409.611-.891 1.361-.91-.01.637-.259 1.165-.463 1.72-.194.528-.777 1.038-.296 1.866.232-.464.343-.819.565-1.083.333-.382.574-.755.648-1.283.064-.51.351-1.01 1.027-.992.139.382.26.728.315.883-.593 1.301-1.139 2.438-1.61 3.603-.214.519-.528.792-1.056.919-.61.146-.555-.446-.805-.891-.222.618-.167.964.222 1.264.518.392 1.018.801 1.583 1.247l2.156-.591c.287-.073.62-.282.842-.191.343.127.602.455.926.728h1.953c-.083.3-.139.527-.231.864.351-.155.62-.373.833-.337 1.009.201 1.684-.491 2.323-.964 1.13-.837 2.471-1.256 3.628-2.039.139-.091.49-.054.639.055.324.264.592.601.833.864.546-.491 1.092-1.082 1.73-1.537.769-.546 1.13-1.393 1.731-2.057.99-1.092 1.796-2.366 3.073-3.194a.237.237 0 00.084-.082c.62-1.538 2.304-2.393 2.712-4.068.018-.063.092-.154.148-.163.231-.046.666-.137.685-.091.194.546.75.345 1.092.591-.074-.446-.49-.819-.065-1.265.5-.519.953-1.074 1.518-1.72-.028.965.444 1.638 1.037 1.939.407.209.777.473 1.129.755.24-.146.425-.255.675-.4.065.345.713.509.241.955-.518.5-.87-.082-1.296-.328-.259.228-.509.4-.694.628-.222.264-.24.646.074.792.537.246.38.564.213.919-.139.3-.296.591-.444.9l-1.065-.218c.583.765.87 1.43 1.75 1.566.777.127 1.536.373 2.434.6.24-.109.638-.29 1.101-.51.13.365.232.629.306.847.564.182.851-.091 1.166-.41.213-.227.61-.518.842-.455 1.315.374 2.018-.39 2.684-1.264.204-.264.37-.546.565-.847.398-.036.777-.063 1.13-.09.277.309.508.582.62.7.166.655-.732.71-.37 1.401.749-.546 1.462-.992 1.313-2.047.704-.473 1.648-.51 2.231-1.32.546-.764 1.324-1.365 1.98-2.056.62-.646 1.213-1.32 1.76-1.92a191.33 191.33 0 00-.491-1.347c.287-.182.527-.337.768-.482-.028.236-.055.473-.093.764.186.027.38.11.472.046 1.398-.938 2.416-2.239 3.434-3.522-.148-.346-.814-.346-.509-.901.241-.437.482-.81 1.093-.828-.102.418-.186.746-.306 1.247.592-.246 1.037-.62 1.388-.546 1.26.263 2.009-.419 2.87-1.22a43.989 43.989 0 01-.898-.418c.287-.52.555-1.001.851-1.547.306.054.62.109.926.154-.5.3-.574.72-.602 1.183.963-.336 1.176.51 1.759 1.038-.472.2-.657.436-.546.937.083.391-.139.837-.25 1.383-.907.291-.963 1.229-1.203 2.093.351 0 .648-.009.944 0a21.8 21.8 0 011.323.1c.491.046 1.009.191 1.472.11.435-.082.824-.41 1.388-.72-.055.465-.083.701-.101.929.388.064.721.127 1.11.19.241-1.027 1.213-.964 1.907-1.391.148.373.259.664.444 1.11 1.129-.728 2.157-1.402 3.166-2.048.231.2.361.31.342.291.63-.309 1.102-.564 1.592-.773.602-.255 1.222-.455 1.814-.737.13-.064.167-.328.278-.564-.472-.064-.824-.11-1.361-.173.324-.382.5-.674.759-.874a559.497 559.497 0 015.109-4.077c.991-.782 2.037-1.501 3.009-2.302.37-.3.527-.855.907-1.128.342-.255.851-.291 1.406-.464-.333-.419-.573-.728-.87-1.11.769-.183.889.436 1.25.764.527-.446 1.055-.892 1.666-1.401.074.436.139.8.222 1.255-.916.155-1.398 1.01-2.351 1.092-.361.037-.583.437-.435.856 1.018-.01 1.453-1.202 2.518-1.101-.084.19-.139.336-.222.536.268-.054.444-.09.684-.136v.9c-.351.028-.638.055-1.045.083.805 1.046-.176 1.993.018 3.057.38-.209.935-.373.926-.537-.01-.782.629-.764 1.046-1.11.249.583-.186 1.447.805 1.429.759-.446.999-1.028.601-1.83-.092-.181-.009-.454-.009-.682l.148-.027c.111.2.213.4.324.6.046-.018.093-.027.139-.045-.028-.236-.065-.464-.093-.728.324-.054.658-.027.88-.164.25-.163.203-.673.694-.627.157.873.093.837-.315 1.465-.472.737-.833 1.546-1.231 2.32.787.41 1.685.428 2.027 1.283-.962.865-1.083 1.156-1.009 2.703a401.35 401.35 0 001.463-2.557v.036c.018 0 .037-.009.055-.009-.009-.01-.018-.01-.037-.018.482-.51 1.074-.938 1.12-1.73.009-.127.185-.236.25-.372.195-.41.287-.874.565-1.21.259-.319.694-.492 1.055-.728-.194-.3-.343-.537-.546-.838.426-.045.722-.082 1.009-.109.194-.81.342-.928 1.12-.928-.074.21-.148.41-.223.61.5-.374 1.204-.647.982-1.356-.241-.783.361-1.393.314-2.13-.009-.154.408-.336.806-.628-.093.683.027 1.029.583.965a60.53 60.53 0 01-.176 1.147c.907-.628 2.008-.692 2.453-1.62a38.77 38.77 0 01-.343-.938c.666-.318.889-.755 1.046-1.465.167-.755.074-1.174-.435-1.547.065-.418.12-.773.176-1.119-.056-.018-.121-.045-.176-.064-.111.219-.222.437-.361.701-.74-1.228-.305-2.875.75-3.33.314.364.574.755.925 1.037.361.3.796.5 1.305.81.102-.3.213-.628.315-.92-.555-.181-1.111-.045-1.379-.509zm-3.971-40.723c-.028.573-.472.837-.888 1.137-.204-.864-.204-.882.888-1.137zM24.676 13.243c.11.018.231.027.342.045-.055.2-.11.41-.157.61l-.25-.055c.028-.2.046-.4.065-.6zm-1.389 1.182c.037.055.074.11.12.192-.064.072-.129.145-.194.227-.055-.073-.166-.173-.148-.21.028-.09.14-.145.222-.209zm-7.284 11.42c.083.146.176.301.26.447a1.862 1.862 0 00-.167.118 13.095 13.095 0 00-.343-.4c.093-.055.176-.11.25-.164zM4.591 50.353c-.111-.227-.222-.346-.195-.437.028-.118.158-.291.25-.291.111 0 .223.146.343.227-.102.128-.213.255-.398.501zm10.477-18.61c0 .328-.11.61-.49.583-.158-.009-.296-.255-.482-.437.352-.327.658-.282.972-.145zm-1.101 9.319c-.269 1.238-.269 1.238-1.333.764.148-.737.889-.491 1.333-.764zM12.8 26.428c.25-.109.546-.373.74.073-.324.282-.63.555-1.018.901.01-.391-.213-.755.278-.974zm-.537 15.643c.01.1-.139.21-.213.319-.102-.082-.26-.155-.287-.255-.028-.1.083-.237.176-.446.167.173.315.273.324.382zm-2.12-8.936h.972c-.25.482-.463.9-.703 1.365-.695-.364-.232-.855-.269-1.365zm0 2.266c.611-.291 1.139-.546 1.62-.783.074.728-.167 1.383-1.092 1.593.222.855.11.992-.86 1.137.11-.655.23-1.32.332-1.947zm-1.842 2.166c-.046-.62.037-.81.935-1.802.13.455.232.819.324 1.146-.481.246-.87.455-1.259.656zm1.139 8.399c-.111.173-.213.346-.324.518a5.158 5.158 0 00-.232-.19c.13-.146.269-.292.398-.437.056.036.102.072.158.109zm-.602-7.571c-.213.063-.416.136-.63.2-.027-.064-.064-.127-.092-.182.093-.064.185-.155.287-.182.12-.037.25-.027.38-.046.018.064.037.137.055.21zm-.694-4.004c.444.127.796.227 1.231.355-.416.427-.74.846-1.49.646.092-.346.166-.646.259-1.001zm-2.841 6.606c.25-.136.407-.218.592-.318-.204-.255-.417-.51-.731-.901.444-.2.786-.364 1.407-.655-.5.864.564 1.565-.37 2.302-.297-.136-.556-.264-.898-.428zM9.06 51.262c-.277.51-1.194 1.001-1.721 1.01-1.018.018-1.416-.564-1.037-1.51.083-.21.167-.41.24-.62.686-.036.25.346.38.629.111-.337.232-.674.306-.92.888-.227 1.73-.445 2.832-.737-.398.892-.666 1.538-1 2.148zm1.454-1.83c.092-.554.592-.672.86-.973 0 .482 0 .492-.86.974zm1.508-4.094c-.472.182-.731.892-1.009 1.465.148-.082.324-.127.417-.246.11-.145.157-.355.36-.427.241.573-.046.91-.24 1.283-.167.31-.61.628-.176 1.055a41.35 41.35 0 01-.972.128c-.268-.492-.518-.938-.796-1.447.324-.237.787-.4.676-1.001-.037-.228.194-.564.398-.765.593-.582 1.13-1.173 1.509-1.938.287-.573.88-.245 1.36-.3.185.51.306.855-.24 1.22-.435.309-.704.755-1.287.973zm2.083 1.137c-.343-.409-.62-.746-.935-1.128.231-.464.62-.482 1.027-.273.37.182.333.71-.092 1.401zm-.019-3.558c-.213-.655.287-1.055.62-1.547.287.028.574.064.935.1-.555.52-1.046.974-1.555 1.447zm.981-11.202c-.101-.127-.194-.264-.314-.364-.352-.254-.352-.51 0-.864.36.21.722.41 1.092.628-.26.21-.518.4-.778.6zm2.61 45.382h-.962l-.028-.3c-.037-.41.028-.792.555-.783.37 0 .528.41.435 1.083zm5.415 1.692c-.074-.027-.157-.045-.231-.073v-1.892c.509.127.87.209 1.434.346-.463.618-.833 1.119-1.203 1.62zm1.268-1.883c-.565-.437-.37-.783 0-1.22.278.446.222.792 0 1.22zm1.888-9.492c-.194-.036-.398-.063-.592-.1.028-.1.065-.282.083-.282.195.018.38.073.574.11a1.98 1.98 0 01-.065.272zm18.669-53.99c-.435.31-.703.264-.842-.364.38.173.61.274.842.364zm-2.99-2.42c.611.255.343.719-.009 1.183-.36-.127-.703-.255-1.12-.41.26-.545.556-1.01 1.13-.773zm-1.49 6.707l.204.018-.056.482c-.046 0-.092-.009-.148-.009v-.491zm-5.998 3.02c-.101.374-.212.71-.721.328l.721-.327zm-3.61 4.496h.232c.157.218.315.428.482.664-.25.182-.491.601-.797.164-.12-.182.047-.546.084-.828zm-4.025 4.523c.083 0 .166.09.296.182-.13.082-.213.173-.287.164-.084-.01-.148-.119-.222-.182.074-.064.148-.164.213-.164zM17.41 45.593c-.25-.583.24-.646.63-.983 0 .628-.093.928-.63.983zm7.941-5.178c-.323.264-.684.519-.888.864-.454.765-1.185 1.083-1.972 1.329 1.61-2.166 2.971-3.53 4.128-4.131-.055.5-.75 1.52-1.268 1.938zm2.925 47.81c-.092-.245-.185-.363-.157-.436a1.07 1.07 0 01.277-.373c.019-.018.241.118.241.127-.074.164-.157.31-.36.683zm.426-50.14c-.398-.227.139-.864-.555-.737.009-.21-.074-.491.037-.6.194-.2.5-.292.888-.492.167.428.278.737.435 1.138-.268.227-.555.473-.805.691zm3.036-6.206c-.87.937-1.712 1.92-2.638 2.812-1.037.992-2.314 1.738-3.12 2.967-.194.3-.564.5-.85.737-.204.163-.436.31-.62.491-.991 1.001-1.963 2.011-2.944 3.021-.13.137-.232.346-.389.41-.722.291-.898.837-.833 1.52-.555-.537-.916.072-1.48.436.184-.864.517-1.547 1.017-1.838 1.213-.692 1.518-1.702 1.453-2.967.186-.018.343-.063.482-.036.324.064.712.319.934.21.398-.183.769-.528 1.01-.902.425-.637.527-1.51 1.434-1.774.148-.937.833-1.001 1.601-1.037.232-.01.528-.21.657-.41.658-.946 1.574-1.601 2.462-2.293.445-.346.75-.837 1.167-1.229.139-.127.407-.127.62-.19-.074-.237-.139-.474-.232-.765.584-.027.843.2.833.555.01.246-.222.492-.564.282zm1.101 13.44c-.25-.563.019-.7.519-.663-.148.19-.306.382-.519.664zm2.222 45.236c-.287-.937.407-.819.842-1.237.074.946-.583.782-.842 1.237zm2.036 2.448c-.315-.446-.481-.682-.657-.937-.01-.346.888-.719 1.814-.664l-1.157 1.601zm.36.737c.186-.691.566-.873 1.223-.873l-.26.819c-.268.018-.564.027-.962.054zm1.241 1.757c.12.073.25.136.435.245-.259.474-.527.947-.824 1.475-.49-.282-.629-.637-.527-1.01.305-1.074.564-2.194 1.75-2.876.406 1.02-.649 1.42-.834 2.166zm5.165-64.783c-.139-.2-.24-.29-.26-.41-.009-.063.14-.217.195-.208.12.009.231.109.343.172-.065.119-.14.228-.278.446zm1.074-1.41c-.093-.11-.223-.21-.204-.246.046-.1.157-.173.24-.255.056.082.176.155.167.237 0 .073-.111.155-.203.264zm-.491-11.384c-.12.064-.046.464-.065.792-.139.118-.38.309-.61.51-.084.072-.14.272-.177.263-.98-.246-.953.755-1.434 1.128-.481.364-.898.81-1.389 1.156-.138.1-.425-.009-.86-.045.083-.073-.056 0-.12.118-.51.9-1.167 1.656-2.046 2.248-.26.172-.296.655-.472.973-.24.446.055.583.37.774.093.054.01.364.01.637-.556-.219-1.01-.4-1.547-.61-.083.1-.148.282-.25.291-1.193.182-1.85 1.183-2.72 1.811-.686.492-1.315 1.165-2 1.73-.564.463-1.157.882-1.555 1.519-.185.3-.564.473-.935.773v.938a53.024 53.024 0 00-.712-.628c-.148.136-.315.264-.445.427-.074.082-.092.3-.13.292-1.175-.055-1.258 1.192-2.017 1.638-.213.127-.305.436-.481.718.36.119.574.192.787.264-.028.082-.028.182-.075.2-.832.337-1.6.865-2.545.91a.679.679 0 00-.472.283c-.36.582-.87.491-1.407.382-.564 1.238-.962 2.584-2.332 3.294-.24.127-.407.446-.528.71-.342.819-1.009.883-2.008.864.305-.436.472-.755.713-1.01.462-.482 1.008-.864.777-1.692-.056-.182.157-.838.814-.637.13.036.556-.337.528-.437-.148-.5.361-.764.38-1.074.046-.628.36-.737.953-.682a99.532 99.532 0 00-.88-1.265c.325-.1.528-.146.723-.228.333-.145.823-.236.962-.5.583-1.056 1.546-1.647 2.508-2.266.297-.191.556-.428 1-.5l-.833 1.337c.666-.328 1.277-.682 1.425-1.429.084-.418.25-.682.74-.555v.009c0-.009-.008-.018-.008-.018.324-.09.638-.182.99-.273.13-.546.139-1.183.87-1.401.074-.027.139-.191.148-.291.102-.756.5-1.984.833-2.466.037-.046.13-.055.324-.128-.046.246-.074.419-.111.6a6.934 6.934 0 01-.139.556c.389-.082.74-.164 1.194-.255.157-.31.343-.637.824-.91.824-.473 1.916-.892 2.018-2.102-.213-.155-.408-.3-.648-.473.148-.128.24-.255.314-.246.25.027.5.11.74.173.316-1.538 1.574-2.548 2.787-2.22-.176.355-1.027.054-.778.882 1.389-.154 1.963-1.665 3.35-1.829l-.425-1.256c1.083.546 1.75.328 1.935-.591.527-.41 1.175.255 1.462-.219-.305-1-.574-1.856-.86-2.802 1.073.255.758-.865 1.415-1.41-.092.855.12 1.373.87 1.528-.212.4-.38.719-.564 1.074.925-.073 1.101-.182 1.018-.728-.093-.555-.268-1.074.102-1.63.13-.19-.047-.572-.102-1.11.352.328.518.601.75.674.203.073.49-.073.73-.11.343.447.353.784-.203 1.002l.889.464c-.546.682-.546 1.61-1.37 2.084zm5.11 4.668c.018-.8.6-.828 1.008-1.174.12.246.194.41.324.692-.435.155-.833.3-1.333.482zm7.987-9.018c.527-.082.824-.118 1.129-.164.019.11.028.21.046.319-.277.337-.583.327-1.175-.155zm6.803 81.654c-.62.628-.935 1.42-1.398 2.12-.324.482-.694.719-1.092 1.01-.093-.064-.176-.136-.269-.2.176-.346.287-.764.556-1.028 1.074-1.074 1.851-2.34 2.591-3.65.223-.39.445-.81.778-1.091.222-.192.639-.164.972-.237l.139.246c-.76.955-1.435 1.965-2.277 2.83zm6.904-52.461c-.074-.055-.157-.11-.23-.164.147-.182.295-.355.536-.646.222.582 0 .719-.305.81zm4.878-37.52c-.065-.017-.12-.045-.185-.063.056-.2.102-.4.157-.6.112.036.213.072.324.1-.092.19-.194.382-.296.564zm8.414 90.654a4.985 4.985 0 00-.232-.164c.241-.273.482-.546.713-.819.074.055.139.11.213.164l-.694.82zm5.386-9.864c.426-.382.658-.592 1.046-.938v1.256c-.333-.1-.574-.173-1.046-.318zm2.509 1.883c-.435.537-.88 1.056-1.278 1.62-.101.146.028.419-.037.61-.037.091-.25.118-.388.173-.49-.82-.454-1.083.203-1.702.167-.154.39-.31.445-.5.268-.883 1.046-1.238 1.786-1.766.148.656-.454 1.329.315 1.73-.574.509-.75 0-1.046-.165zm3.286-2.766c-.084-.191-.186-.328-.158-.364.148-.182.324-.337.5-.5l.231.2c-.175.21-.351.41-.573.664zm.796-2.038c.462.063.786.109 1.101.154-.583.646-.583.646-1.101-.154zm12.449-22.841a5.013 5.013 0 01-.241-.228c.453-.318.481-1.073 1.453-1.128-.481.537-.852.946-1.212 1.356zm1.666-2.448a5.43 5.43 0 00-.204-.273c.12-.054.231-.155.278-.127.074.036.148.163.138.245-.009.046-.138.1-.212.155zm2.165 29.538c-.027.046-.129.037-.194.055-.028-.045-.046-.091-.074-.136.111-.073.231-.146.342-.219-.027.1-.027.21-.074.3zm5.174-80.607c-.194.91-.194.91-.981 1.056.361-.391.648-.7.981-1.056zm-.638 55.92c.148-.401.25-.665.342-.929.083.037.176.046.195.082.222.446.046.673-.537.846zm-.5 13.968c-.009-.756.537-.765.972-.901-.047.564-.445.746-.972.9zm2.027-1.129c-.333.337-.639.273-.99.191.194-.327.083-.828.592-1.01.083-.027.028-.336.12-.473.417-.646.805-1.32 1.315-1.884.129-.145.684.091 1.073.155.046.446.093.828.121 1.074-.796.673-1.555 1.274-2.231 1.947zm.777 3.54c-.083-.118-.092-.382-.018-.51.203-.345.49-.245.759-.063.046.182.083.355.129.546-.296.218-.592.41-.87.027zm.806-.61l.934-.919c.13.892-.49.792-.934.92zM123.277 71c-.148.127-.148.4-.232.664-.296.018-.721.055-1.147.091-.185-1.037-.185-1.037.537-1.529-.111-.127-.324-.264-.324-.4 0-.128.259-.382.333-.364.389.1.888.182 1.111.455.277.327.101.764-.278 1.083zm9.237-14.314a6.055 6.055 0 01-.231.264c-.25-.219-.491-.446-.926-.829.704.037 1.027.164 1.157.565zm-2.823 8.726c.444-.045.842-.455 1.314-.309.028.1.047.2.074.3-.379.228-.749.483-1.157.665-.148.063-.509 0-.564-.11-.13-.254-.028-.51.333-.546zm-1.444-7.77c-.185.245-.37.5-.555.745l-.232-.154.482-.801c.102.073.203.136.305.21zm7.192-36.947l.065.81c-.537-.218-.426-.446-.065-.81zm.916-6.424c.12.41.232.664.259.928.047.491.093.965-.416 1.347-.916.691-1.166 1.365-1 2.439h-1.555v-1.839c1.787-.127 1.925-1.756 2.712-2.875zm-2.693-3.485c.203.309.435.6.574.937.055.127-.102.355-.185.6-.685-.473-.399-1.037-.389-1.537zm-.778 21.694l.139.136-.426.464-.194-.19a22.8 22.8 0 01.481-.41zm-2.962 2.575c.463.619.149 1.174.176 1.802.815-.446 1.324-1.11 1.861-1.756 1.166-1.393 2.193-2.894 3.609-4.077.574-.473 1.148-.938 1.787-1.456.379.455-.102.837-.37 1.146a259.982 259.982 0 01-4.286 4.705c-1.231 1.338-2.49 2.648-3.711 3.95-.472-.137-.528-.374-.352-.71.12-.246.213-.5.324-.756h-.009a54.9 54.9 0 01.694-.764c-.417-.155-.685-.255-1.111-.41.491-.591.907-1.092 1.388-1.674zm-.925 2.157c-.028.245-.046.464-.074.691-.583.164-1.166.328-1.814.5.527-.563.851-1.282 1.888-1.191zm-4.045 21.776c.278.3.509.564.75.828-.083.082-.157.164-.241.255-.296-.191-.583-.373-.907-.583.148-.19.241-.31.398-.5zm.454 8.344c-.139.064-.241.137-.315.119-.056-.01-.102-.128-.148-.2.083-.055.166-.146.25-.146.055.01.12.118.213.227zm-.981 9.073c-.093-.2-.195-.41-.315-.664.518.118.518.118.315.664zm.527-.874c-.092 0-.176-.009-.268-.009-.074-.2-.139-.39-.241-.673.231-.036.435-.073.778-.127-.112.336-.195.573-.269.81zm.944-1.319c-.166-.21-.314-.319-.305-.41.009-.09.166-.2.277-.236.056-.018.223.118.223.191.009.11-.084.218-.195.455zm2.009-5.369c-.75.673-1.574 1.256-2.268 2.03-.546.027-1.083.063-1.842.108 1.231-.873 2.712-1.228 2.888-2.911.731.209 1.231-.055 1.324-.665.453-.082.805-.1 1.138-.209.305-.1.583-.282.944-.346-.426 1.02-1.462 1.338-2.184 1.993zm4.285 10.874c.296-.19.583-.382.907-.591.176.883.13.91-.907.591zm.25-1.073c-.481-.337-.722-1.374-1.851-.71.361-.956.361-.956.953-.555.232.154.417.455.713.009.065-.1.527-.01.759.09.398.174.768.429 1.305.738-.648.155-1.213.282-1.879.428zm.768-14.023c.047-.028.222.127.426.255-.194.172-.315.318-.463.382-.055.018-.287-.191-.277-.237a1.06 1.06 0 01.314-.4zm-.028-.974c.186-.391.491-.473.972-.391-.25.518-.611.473-.972.391zm.621 12.922c-.315.155-.602.291-.889.437-.055-.064-.111-.119-.167-.182.204-.237.398-.483.639-.765.176.2.287.346.417.51zm-1.361-12.704l.703-.19c.028.545-.259.527-.703.19zm.537-1.11a43.08 43.08 0 00-.667-.373c.704-.619 1.296-1.21 2.509-1.165-.704.592-1.222 1.02-1.842 1.538zm1.61 10.684c.602-.537 1.009-.428 1.315-.01.101.137.138.5.046.574-.167.136-.528.264-.676.173-.268-.146-.444-.465-.685-.737zm1.25 3.603c-.333-.528-.805-1.028-.398-1.565.398-.537.87.273 1.518-.091-.5.728-.805 1.183-1.12 1.656zm4.063-20.138c.102-.118-.102-.491-.194-.774l1.388 1.092c-.194.774-.435 1.62-.611 2.485-.046.209.121.455.195.728-.843.1-.944-.756-1.528-1.038.547-.782.121-1.756.75-2.493zm-.426 18.627c-.083-.327-.027-.6.361-.773.297.482-.074.61-.361.773zm-.213-1.4c-.101-.647.195-.774.778-.556-.25.173-.5.346-.778.555zm.26-2.24c.453-.045.694-.063.934-.081.019.136.065.227.037.273-.259.373-.527.336-.971-.192zm.203-9.281c.102-.565.306-.774.685-.747.056 0 .093.255.139.41-.231.1-.463.191-.824.337zm1.639 9.409c.36.7.36.7-.5 1.183-.269-.619.49-.728.5-1.183zm.805-6.497c.435-.492.435-.492.999-.082-.379.036-.648.054-.999.082zM28.415 10.149c.63.19 1.194.364 1.759.537v1.4c.536-.281 1.036-.436 1.36-.764.195-.2.111-.664.158-1.082.805.518 1.157-.182 1.647-.565.639-.5.574-1.083.213-1.692a1644.57 1644.57 0 003.49-4.314c-.075-.364-.352-.855 0-1.465.296.373.536.683.74.938-.028-.901-.065-1.802-.093-2.749-1.444.62-2.147 2.212-3.813 2.239a6.522 6.522 0 00-1.194 1.938c-.13.355.074.838.139 1.32-.12.045-.296.109-.472.164-.111.591.324 1.31-.361 1.756-1.028-.355-.204-1.338-.815-1.957-.425.419-.777.865-1.221 1.183-.741.537-.898 1.174-.574 1.984.037.082-.028.21-.056.364a14.84 14.84 0 00-.722-.082v-.691c-.898.264-.935.373-.463.964.14.2.213.446.278.574zm104.479 75.62c.296.145.518.246.897.428-.333.336-.62.618-.916.928.407.337.694.164.842-.264.454-1.274 1.315-2.266 2.12-3.322.527-.682 1.064-1.556.87-2.511.555-.346 1.129-.6 1.555-1.001.426-.391.74-.92 1.036-1.42.269-.455.445-.964.685-1.492-.916-.137-1.48.1-1.888.755-.833 1.356-1.647 2.721-2.554 4.031-.556.801-.796 1.811-1.639 2.421-.046.291-.009.637-.166.864-.148.246-.491.355-.842.583zm-103.47-74.71c-.305.054-.676.209-.75.118-.37-.437-.814-.31-1.212-.21-.195-.272-.352-.482-.51-.7l-.583.664c.87.692 1.639 1.292 2.36 1.866.982-.437.5-1.183.695-1.738zm104.682 25.843c-.361.41-.694.847-1.009 1.292-.083.11-.074.283-.102.428.074.046.148.082.222.128 1.232-1.374 2.463-2.758 3.703-4.132-.102-.09-.204-.173-.296-.264-.454.437-.907.874-1.352 1.32-.398.4-.796.8-1.166 1.228zM19.641 13.425c-.01.009-.01.018-.01.036.019 0 .028 0 .047-.01l-.037-.027zm-.25.473c.12-.091.166-.282.231-.446-.546.054-1.092.109-1.666.173.407.9-.555 1.046-.86 1.574-.325-.091-.602-.164-.991-.273-.083.455-.148.828-.24 1.338.379-.146.62-.182.786-.31a73.71 73.71 0 002.74-2.056zm96.777 71.562c.445-.037.63-.019.778-.073.981-.373 1.49-1.329 2.323-1.884.195-.127.306-.382.574-.746-1.703.391-2.49 1.574-3.675 2.703zm4.24-3.185c1.286-.501 2.878-1.748 3.248-2.54-.897-.027-2.184.974-3.248 2.54zm-101.6-31.44c1.416-.374 2.6-1.793 1.962-2.685-.343.382-.722.755-1.028 1.174-.333.437-.592.937-.934 1.51zM60.338 2.94c-.13.701-.24 1.265-.343 1.811.213.4.417.801.667 1.274.472-1.437.565-1.929-.324-3.085zM14.124 50.124c-.925-.2-1.397.1-1.75.728-.212.383-.545.71-.952 1.229 1.332-.346 1.888-1.21 2.702-1.957zm2.379.355c.583-.655.555-.737-.343-1.264-.86 1-.87 1.055-.296 1.874.222-.21.454-.391.639-.61zm3.517-4.595c.204.237.398.464.62.728.361-.419.667-.773 1.065-1.229-1.148-.282-1.148-.282-1.685.501zm122.685 25.289c.425.182.768.318 1.305.546-.204-.774-.148-1.43-.648-2.112-.269.637-.463 1.102-.657 1.566zM4.35 56.276c.565-.582.62-1.338.065-2.011-.324.728-.981 1.356-.065 2.011zm36.144 47.602c-.334.318-.472.828-.74 1.328.49-.063.823-.109 1.23-.163-.213-.155-.37-.264-.518-.383.342-.591.666-1.137 1.046-1.783-.768.036-.704.71-1.018 1.001zM21.02 12.515c-.12-.3-.24-.592-.38-.92-.787.42-.675 1.22-.953 1.82.61-.036.99-.41 1.333-.9zm-1.38.91l.028.027c.01-.01.01-.027.019-.037-.019 0-.028.01-.046.01zm-.018 33.414c-.36.028-.713.055-1.12.092-.037.518-.36.955.037 1.392.407-.428.805-.865 1.213-1.292-.047-.073-.084-.137-.13-.192zm-1.064 1.511l-.028-.027.028.027zm-7.062 25.716c1.194-.464 1.221-.537.518-1.61-.185.573-.333 1.028-.518 1.61zm21.64-59.404c-.149-.628-.26-1.128-.426-1.81l-.51.91c.278.272.334.709.935.9zm.379-1.884c.056.091.481.1.574 0 .37-.382.11-.664-.306-.919-.333.228-.5.537-.268.92zm21.15 94.958c.462-.273.823-.482 1.323-.782-1.018-.492-1.083-.446-1.324.782zm82.338-82.018c.111-.6 1.481.01 1.111-1.146-.556.246-1.065.455-1.111 1.146zm2.638 4.66c-.333.473-.602.855-.916 1.31.74-.027.74-.027.916-1.31zm2.147 32.277c.333.11.593.2.833.273.185-.373.324-.664.472-.946v.009c-.62-.219-.87.255-1.305.664zM92.613 7.41c-.213-.037-.39.018-.556.09-.435.2-.87.42-1.314.628.759.1 1.351-.218 1.87-.718zm29.655-.283c-.25.665-.481 1.192-.639 1.748-.046.172.028.382.074.582.084-.755.954-1.329.565-2.33zM18.493 48.387c-.472.282-.953.554-1.462.855.583.31.962.054 1.462-.856zm.065-.037l-.028-.027c-.01.027-.028.045-.037.063.018-.018.046-.027.065-.036zm110.865 35.717h.018-.018zm-.537.883h.25c.092-.291.185-.582.277-.883-.231.046-.601.046-.629.137-.065.227.065.5.102.746zM28.739 17.81c.5-.036.842-.345 1.074-.855-.38.2-.75.41-1.13.61l.056.246zm40.956 79.825l.315.082.222-.9c-.407.19-.722.409-.537.818zm-13.04 9.355c.545-.127.99-.018 1.156-.673-.537-.082-.814.136-1.157.673zm5.173-96.477l-.36 1.028c.471-.228.712-.528.36-1.028zm-37.92 76.921c-.26-.063-.528-.127-.861-.2.324.655.333.664.86.2zm0 0c.018 0 .027.01.046.01.009-.019.018-.046.037-.064a.517.517 0 00-.065.036l-.018.018zm105.977-2.666c.472-.473.472-.473.204-1.01-.083.391-.148.7-.204 1.01zm4.008-.419c.009-.009.019-.018.028-.018v-.018c-.019.009-.028.018-.046.027 0 .01.009.01.018.01zm-.018-.009c-.417-.382-.907-.4-1.416-.291.444.2.842.682 1.416.291zm5.081-61.333c-.342.136-.611.236-1.074.418.87.182.87.182 1.074-.418zM30.303 94.314v-.592c-.24.164-.49.319-.907.592h.907zm0-.6c.01-.01.019-.01.028-.02 0-.017-.01-.026-.01-.035-.009 0-.009.009-.018.009v.045zm-7.682-9.283c-.056-.018-.157-.054-.167-.036-.148.182-.287.373-.425.564l.305.136c.102-.218.194-.436.287-.664zm47.99 14.478c-.073.11.075.364.13.555.093-.036.186-.073.269-.109-.019-.1-.047-.21-.056-.31-.027-.263-.194-.354-.342-.136zm63.736-16.025c.157-.19.314-.391.472-.582a3.13 3.13 0 01-.185-.173c-.185.173-.371.346-.565.519.093.072.185.154.278.236zm8.746-20.902c-.194-.264 0-.892-.638-.756.203.255.416.5.638.756 0 0-.009 0 0 0zM4.073 26.2c-.084-.037-.158-.1-.186-.082-.083.055-.148.136-.222.21.074.036.167.108.213.09.083-.045.13-.145.195-.218zm111.401 59.85c-.102.064-.176.173-.268.273.083.055.157.11.305.21.074-.137.148-.237.176-.356.009-.027-.185-.145-.213-.127zM29.007 6.763c-.018-.1-.064-.182-.101-.282-.065.028-.185.064-.176.073.018.1.064.2.11.31.066-.037.177-.082.167-.1zm-2.11 13.34c-.037 0-.065-.008-.102-.008.01.018.019.027.028.045l.074-.036zm.333-.2l-.333.192c.13.009.269.027.398.036a2.602 2.602 0 00-.065-.227zm110.551 3.823c-.463-.1-.75-.164-1.028-.228.213.3.444.537 1.028.228zM2.184 28.503c-.092-.036-.176-.073-.268-.11-.028.065-.083.165-.065.192.056.073.157.11.232.155.027-.073.055-.137.101-.237zm9.84 24.652c.064.027.12.054.221.109l.167-.218c-.065-.037-.148-.11-.176-.091-.083.045-.139.136-.213.2zM106.31 90.8c.065.055.139.164.204.164.092 0 .194-.073.296-.118-.167-.137-.231-.228-.259-.219-.093.037-.167.11-.241.173zm22.547-7.344c.231.237.398.41.555.583-.009-.446-.055-.492-.555-.583zm.555.601c.01 0 .028.01.028.01l-.028-.028v.018zM21.103 37.385c0 .009.01.018.01.027h.018c.01-.01.009-.027.018-.036-.018 0-.037 0-.046.009zm-.602.154c.278-.072.445-.109.602-.154a44.188 44.188 0 01-.222-.71c-.167.382-.25.555-.38.864zm5.637-5.269l-.055-.919c-.065.31-.12.61-.185.91.073.01.157.01.24.01z" fill="#F02801"/></svg>