<svg width="302" height="442" viewBox="0 0 302 442" fill="none" xmlns="http://www.w3.org/2000/svg"><g clip-path="url(#clip0_2523_11)" fill-rule="evenodd" clip-rule="evenodd" fill="#FFC000"><path d="M154.388 328.586c3.616.851 6.381 2.553 9.996 5.53a9.427 9.427 0 002.34 1.702c1.064.638 1.914 1.064 3.191 1.489 1.914-1.064 3.615-2.127 5.742-3.403 1.064 1.489 1.915 2.552 2.978 4.254 5.53 1.276 10.635 5.53 16.803 7.657.638-.638 1.063-1.276 1.702-1.914-3.191-2.766-6.169-5.956-9.572-8.296-3.19-2.127-7.019-3.828-9.784-6.38.638-4.467 4.68-1.915 6.168-3.829 1.489-2.127 4.68-1.063 6.169-3.616-1.064-.638-2.127-1.489-3.616-2.552-.213.425-.851 1.489-1.489 2.552-1.914-.638-3.403-1.276-4.679-1.701v-5.956h-6.381c-6.594-4.466-12.337-9.784-20.206-12.124-1.702-2.126-2.978-4.679-4.892-6.593-1.915-1.914-4.254-3.403-6.594-5.318.426-1.276.638-2.552 1.064-4.041-2.765-1.914-6.169-2.977-10.21-2.552-1.063-1.489-2.339-2.978-3.828-4.892h-5.318c-2.977-2.552-6.806-4.041-8.933-8.295 1.914-.213 3.403-.213 4.679-.426l2.34 2.34h3.616c.851-.638 1.701-1.489 2.127-2.127l7.657 4.467c.638-.426 1.063-1.064 1.701-1.489-.212-.213-.212-.638-.425-.851-2.765-3.616-7.019-4.892-10.422-7.232-6.381-4.253-12.975-7.869-19.781-11.06-3.828-1.701-7.019-4.466-10.847-6.168-1.49-.638-2.552-2.552-4.467-4.892 2.978.638 5.318.425 6.594 1.489 2.977 2.765 7.231 2.978 9.784 5.955 1.701 1.915 4.679 1.489 6.593 3.829 1.276 1.702 3.829 2.34 5.743 3.616 2.127 1.489 3.829 3.616 6.168 4.466 3.403 1.489 7.019 2.978 9.997 5.105l1.701-1.701c-4.041-2.978-8.082-6.169-12.123-9.146 0-1.702-.213-3.191-.213-3.616-2.127-5.318-8.295-5.743-9.571-10.848 2.127 1.489 5.53 1.064 6.381 4.254 2.977-.212 5.317 2.127 7.869 2.978 2.766.851 5.318 1.914 7.87 3.19 2.553 1.489 4.467 3.191 7.657 3.829 2.553.638 4.892 2.978 7.232 4.679 3.19-.212 5.955.638 8.933 2.34 5.743 2.978 11.486 5.955 16.803 9.571 1.702 1.064 4.467 3.403 6.806-.425-2.339-1.489-4.679-2.553-6.806-4.254-2.34-1.914-4.254-4.041-7.657-4.892-.213-.851-.213-2.127-.638-3.191-.425-1.063-1.489-1.914-2.127-2.765-.851-.212-2.34.638-2.552-1.276-1.489 0-3.191.213-4.467-1.276-1.063-1.063-2.34-2.127-3.829-2.34-6.168-1.488-10.634-5.742-14.676-10.209 0 0-.212.213-.212.425-.638 0-1.489 0-2.34-.212 0-.851 0-1.489.213-2.34 1.063.638 1.914 1.276 2.552 2.127 1.914-.213 4.254.638 5.53 2.127 3.191 3.19 7.445 4.679 11.273 6.806 2.34 1.276 5.105 2.127 6.168 4.892.851.213 2.34-.638 2.553 1.276 2.977 1.064 5.955 1.915 9.571 3.191.425-.213 1.489-.638 2.552-1.276-3.828-3.403-9.784-4.254-12.336-9.146l-.213.212c-.425-.212-.638-.638-1.063-.85l.425-.426c.213.426.638.638.851 1.064.638.212 1.489.212 2.127.425 4.041 2.34 7.87 5.743 12.336 7.232 5.105 1.701 8.295 7.019 14.251 7.231 2.765 3.616 8.082 3.829 10.847 8.083 1.064 1.701 3.829 2.127 5.956 2.978 3.828 1.489 7.231 3.19 10.422 5.955 2.552 2.34 5.955 3.403 9.571 5.53.426-.851.638-1.914 1.064-2.978-1.702-1.276-4.042-3.403-7.019-5.53.851-.85 1.701-1.276 2.552-1.914 1.276.426 2.978.638 3.616 1.489 2.552 3.828 7.019 3.616 10.635 5.53 1.063.638 2.765-.213 4.254-.638 4.253.638 7.444 6.168 12.336 2.127l3.403 1.701c.213-1.063.425-1.914.213-2.126-1.702-1.489-3.191-2.978-5.105-3.829-2.552-1.063-3.828-3.19-5.743-5.317 1.064.425 2.34.638 4.254 1.276.213-.426.426-1.489.851-2.765-4.041-4.68-10.635-7.657-16.59-11.699.212-.425.425-1.063.638-1.914 2.977 1.702 6.168 2.553 8.508 5.105 1.063 1.276 2.977 1.702 4.466 2.552 2.765 1.702 5.743 2.978 8.295 5.105 3.616 2.978 8.083 4.892 12.337 7.232.638.425 1.489 0 2.977 0-.638-1.277-.85-2.34-1.488-2.765-1.277-1.277-1.915-2.553-1.064-4.467h5.317c2.978 3.19 6.594 5.53 10.848 7.444 1.063-1.914.851-3.403-.638-4.466-1.489-1.276-1.702-2.553-.638-4.254 1.701.425 3.19 1.063 5.317 1.701.213-1.914.426-3.403.638-4.892 1.489-.638 3.191-1.489 4.68-2.127.212-2.339-1.702-3.615-2.978-4.254-5.53-2.339-9.359-6.806-14.463-9.571-1.915-1.063-2.766-3.403-4.893-3.828-2.552-.426-3.19-2.978-5.104-3.829-2.127-.851-4.041-2.34-5.956-3.403-3.19-1.489-5.317-4.254-8.72-5.53-3.191-1.064-5.743-4.041-8.721-5.743-4.254-2.765-8.295-5.317-12.761-7.444-4.254-2.127-8.296-4.679-12.337-7.232-3.828-2.765-7.87-4.466-12.123-5.955-1.702-.638-2.978-1.276-2.127-4.042 8.933 4.68 18.291 7.657 25.736 14.676 2.127.426 4.466.851 7.231 1.489-.85-1.276-1.063-2.765-1.701-3.19-2.552-1.276-5.105-2.552-7.232-4.679-1.063-1.064-2.765-1.277-4.041-1.702-4.892-1.914-8.721-5.53-13.613-7.232-8.72-2.977-15.739-9.358-24.247-12.549-1.276-.425-2.127-1.701-3.403-2.339-8.082-5.53-16.59-9.997-25.098-14.889-7.444-4.254-14.889-8.295-22.546-12.336-3.19-1.702-6.168-3.829-9.358-5.53-2.553-1.489-5.105-3.191-8.083-4.042-1.489-.425-2.977-1.063-4.041-2.127-3.403-3.403-7.657-4.892-12.124-6.593-3.403-1.276-6.593-3.191-9.358-5.318-3.616-2.765-8.083-4.253-11.911-7.019-5.743-3.828-11.911-6.806-18.08-9.784-.85-.425-1.488-1.488-2.339-2.765v.639c-1.276-.213-2.552-.213-3.828-.426.212-.851.425-1.489.638-2.127.638.426.85.851 1.276 1.064.638.212 1.276.425 1.914 1.063 1.914 1.064 4.254 1.276 5.956 2.127 7.657 4.467 16.377 7.019 24.034 11.486 10.635 6.168 21.908 11.485 32.755 17.015 1.914 1.064 4.254 1.489 6.381 2.127 1.064 1.064 1.914 2.553 2.978 3.191 9.358 5.104 18.717 9.996 28.288 14.676 3.829 1.914 7.445 4.041 10.422 7.231 1.702.426 3.829-.638 5.105 1.489a9509.14 9509.14 0 011.702-3.403c-1.489-4.679-6.381-4.466-8.295-8.082a451.733 451.733 0 0013.399 5.104c.638-.638 1.489-1.489 2.553-2.339 1.914-.851 4.466.638 6.593-1.276.638-.639 2.765 0 3.829.425 3.19 1.276 6.168 2.978 9.358 4.254.638.213 1.702 0 2.765 0 0-.851.213-1.914.213-2.765-6.168-3.191-12.549-6.381-18.504-9.571.638-1.915 1.063-3.404 1.276-4.893 0-.638-.851-1.276-1.276-2.126h-4.254c-.213.638-.638 1.488-1.064 2.126-.425 0-1.063.213-1.276 0-1.914-2.552-4.679-3.615-7.232-4.679-2.552-1.276-4.466-3.403-7.657-4.041-2.977-.638-5.104-4.041-8.507-4.679-4.892-4.467-10.848-7.019-16.803-9.784-1.915-.851-2.553-2.34-2.127-4.68 1.063-.212 2.127-.425 3.616-.638 0-1.063-.213-2.127-.213-3.403-3.829 1.489-3.829 1.489-5.105 3.616h-4.467c-3.615-1.489-6.593-2.552-10.847-4.254h3.616c1.063-.213 3.19-.213 5.743-.425v-3.403c-1.064-.213-1.915-.213-3.404-.426v-7.019a113.731 113.731 0 01-6.806 4.041c-1.063 1.489-2.552 2.978-4.041 4.892-2.765-1.276-5.317-2.339-8.082-3.615-.638-1.915-1.277-3.616-2.127-5.956.85-.638 1.914-1.701 3.615-2.978v-3.615h-5.104c-.851-1.277-1.489-2.766-2.34-3.404-1.063-.638-2.552-.85-4.466-1.276a186.95 186.95 0 00-7.232 3.403c-3.616-1.276-4.041-5.104-6.381-6.806 1.063-2.978 1.914-5.743 3.19-8.933h2.766c0-1.702.212-3.19.212-4.892-.851 0-1.489-.425-1.914-.213-1.702.426-3.19 1.064-5.105 1.49v-3.83c-1.701 0-3.19-.212-4.68-.212-.637 1.489-1.275 2.552-1.7 3.828.638 2.553 2.977 2.127 5.317 2.978-.851.85-1.49 1.489-2.553 2.765-.425.85-1.276 2.552-2.127 4.467-1.914-.638-3.403-1.064-4.892-1.702a180.073 180.073 0 00-3.615-2.127c1.063-1.276 1.914-2.552 3.403-4.04a237.545 237.545 0 00-4.68-3.404c-.638 1.063-1.063 2.127-1.701 3.19l1.063 1.064c-.425.638-1.063 1.063-1.701 1.914-.638-.638-1.276-1.489-1.914-1.914-.638-.425-1.702-.851-2.978-1.49 1.063-.85 1.914-1.488 2.978-2.126v-4.041h-4.254c-3.19-1.915-5.53-3.19-7.87-4.68.425-1.488 1.063-3.19 1.489-4.679-1.49-.638-2.34-1.276-3.403-1.701-1.49.85-2.978 1.489-4.892 2.552-3.829-2.127-7.657-4.467-12.55-7.232l7.02-2.34c.425-.425 1.488-1.488 2.765-2.552-.426-.638-.426-1.276-.851-1.701-2.553-1.915-4.892-3.616-8.083-4.467-2.127-.425-3.828-1.489-5.53-2.765-2.127-1.701-5.104-2.552-7.87-4.041a60.06 60.06 0 002.978-3.829l-4.679-2.34c-1.064 1.915-1.489 4.893-5.105 3.616l-1.701-1.701c0-2.127 1.276-2.765 5.53-2.978l4.466-4.466c-.85-.213-1.488-.426-2.34-.639.213-.212.426-.638.639-.85h-5.956c-.638-2.127-1.063-4.041-1.701-6.381-2.127-1.702-4.892-1.914-7.444-2.765-.639 3.828-1.064 7.019-1.702 10.422 0 2.127 4.041 1.276 3.403 4.68-1.914-.852-3.616-1.277-4.68-2.34-1.276-1.064-2.339-1.915-4.253-1.702-.851 0-1.702-.85-2.552-1.276-2.34-1.276-4.68-2.978-7.02-3.403-1.914-.426-3.403-1.49-3.828-2.553-1.489-4.679-6.38-4.466-9.359-7.231-.638-.638-2.127-.213-3.19-1.276-.638-.851-1.914-1.277-2.978-1.915 2.34-2.127 4.254 1.49 6.594.638 1.701 2.978 5.53 3.19 7.87 5.105 2.552 2.127 5.742 1.914 8.507 3.403 1.276.851 3.19-.212 5.318-2.34-.851-1.276-1.915-2.34-3.19-3.828 1.063-.85 1.914-1.701 3.19-2.765 1.063 2.127 1.914 3.828 2.765 5.317h2.552c.85-1.063 1.702-2.127 2.765-2.977-.425-.851-.85-1.915-1.489-3.19-1.063.425-1.914.85-2.978 1.275-2.552-.425-2.765-2.34-2.552-4.466-8.295-3.19-13.825-10.21-21.907-13.613.638-.212 1.276-.638 2.34-1.063-.639-1.276-1.064-2.765-1.702-4.041-1.49-.639-2.765-1.277-3.829-1.49-1.276-1.7-2.127-2.977-3.403-4.891 1.489-.638 2.978-1.064 4.467-1.702 1.063 1.914 2.127 3.403 2.977 4.892 2.127.638 4.467 1.276 6.807 1.914.638 1.064 1.488 2.34 2.127 3.404 3.403-.639 3.403-.639 5.317-3.829 1.489.85 2.978 2.127 4.467 2.34 1.914.425 2.765 1.276 3.403 3.19-1.915 1.489-5.743-.638-6.381 3.829.425.212 1.489.425 2.552.85l-.638.638h5.317c.426-.638 1.064-1.276 1.702-2.126h4.467c.425 1.276 1.063 2.977 1.701 4.253l3.829-3.828c-.213-.425-.426-1.702-1.064-3.403 8.72 1.276 17.016 4.041 25.098 7.444 4.254-2.34 9.146-.213 13.825-1.489-.212-2.552-1.914-3.828-3.615-4.466-2.765-1.064-5.53-2.553-8.295-3.829-2.553-1.063-5.105-2.552-7.657-3.616-3.19-1.276-4.042-1.701-6.594-4.679-.85-.85-1.914-1.063-2.978-1.701-1.914-1.277-3.616-2.553-6.38-4.68 2.339 0 3.828-.425 4.04 0 2.978 4.041 8.934 2.978 11.912 6.806 5.317 0 9.145 3.829 13.825 5.318 1.914.638 3.828 1.489 6.168 2.552.213-.638.638-1.489 1.063-2.34 2.127-.425 4.254-.638 5.743 1.702-1.276.85-2.552 1.914-4.68 3.403 3.404 1.49 6.17.426 8.934.851l2.34-2.34h3.616c2.765 3.19 7.657 2.765 11.06 5.105.638-1.276 1.063-1.914 1.489-3.19 1.276.85 2.34 1.701 3.403 2.552l2.977-1.489v-2.978c-.425 0-1.063-.425-1.701-.212-1.702.425-3.19 1.063-4.68 1.488l-.638-.638c.639-1.276 1.49-2.552 2.127-4.04-.212-.214-.638-.639-1.276-1.49h5.743c.85 2.553 4.041 2.553 5.318 5.318 1.488-.851 2.552-1.49 3.403-2.127 1.063-.426 2.127-.851 3.19-1.49 1.489 2.766 2.765 5.318 4.254 8.296 1.702-.85 3.403-1.914 5.53-2.978.425.213 1.489.638 2.552 1.064 4.467 1.701 8.721 3.616 13.187 5.104 4.042 1.277 7.658 3.829 10.423 7.657 1.276-.425 2.552-1.063 4.041-1.488V5.715c7.657 2.552 14.25 6.593 22.758 8.507 2.553-.85 5.53 1.915 9.359 3.403.638-1.276 1.063-2.552 1.701-4.04.213.637.213.212 0 0-2.977-.852-5.317-2.553-8.72-2.978-2.765-.213-5.105-2.978-8.295-3.616-1.489-.213-2.978-1.49-4.467-2.34-5.53-3.616-12.124-5.53-17.654-9.146-2.552-1.701-5.742-2.765-8.295-4.892 2.553-1.701 4.467 0 5.956 1.064 3.403 2.552 7.019 2.765 11.06 3.19-1.702-2.127-4.892-4.254-7.232-4.892-.638-.213-1.489.213-1.701-.213-2.553-3.828-7.019-3.828-10.422-5.955-1.702-1.276-3.403-2.765-4.892-4.041.638-.851 1.063-1.49 1.914-2.553-10.422-2.127-18.079-8.933-27.863-11.698-1.702-2.34-4.892-2.127-7.02-4.041-1.488-1.489-4.466-.638-5.53-2.978-3.828-.425-6.38-3.403-9.57-4.892-3.19-1.489-6.381-3.403-9.572-5.317-5.53 3.403-9.358-.426-13.825-3.19.638-.851 1.063-1.702 1.489-2.553l-1.489-1.489c-1.489 0-3.616-.85-4.892.85-2.553-.425-5.105-.85-7.87-1.488-2.552-2.552-7.444-1.489-10.634-6.168 3.403 1.276 5.742 2.34 8.295 2.765 2.552.425 5.317 0 8.082 0v-3.403c-.85-.638-1.914-1.276-3.403-2.127v-4.254c-1.489-2.127-2.553-4.254-4.254-5.743-1.914-1.701-4.467-3.19-7.019-3.828-2.127-.639-3.829-1.49-5.743-2.765-1.276-.851-2.765-1.277-4.254-1.702-2.977-1.063-5.955-2.34-8.933-3.403l-2.127 2.127c2.34 1.914 4.467 3.828 6.806 5.317 2.553 1.702 5.318 2.978 8.083 4.254-3.829 1.064-9.146-.638-13.825-2.978-1.702.426-2.34 3.403-4.68 2.553-6.168-3.829-9.996-9.784-15.314-14.676-2.977-.426-6.168-1.064-9.146-1.702-3.403 2.34-6.593 4.254-9.784 6.594-5.53-2.553-11.273-5.105-17.44-7.87.637-1.276 1.063-2.552 1.7-3.616-1.275-1.276-2.977-1.063-6.38.426-.85-.426-1.489-.851-2.765-1.489l-4.467 4.466c-3.403-1.914-7.019-2.977-10.634-4.254-1.915-.638-1.702-2.765-2.127-4.679h-4.254c-.213.638-.213 1.064-.426 2.127-.85 0-1.914.213-2.977.213-.851-3.403-.851-3.403-4.467-6.381-1.276 1.701-2.552 3.19-4.254 5.317-2.978 1.064-5.53-2.127-8.72-2.765.425-3.19 1.063-6.593 1.488-9.784-.85-.851-1.488-1.701-2.552-2.765-2.34 1.702-4.467 3.191-6.594 4.467 0 1.276.213 2.127.213 2.552 1.064.851 1.914 1.276 3.403 2.553-1.701.425-2.552.85-3.19.638-2.765-1.064-5.53-2.34-8.295-3.616-.426-.213-1.064-.213-1.915-.426 0-1.489-.212-2.765-.212-4.466h-4.041c-.639-1.276-1.064-2.127-1.915-3.616 1.276-.851 2.978-1.914 4.68-3.191v-4.253c-.426 0-1.064-.426-1.489-.213a61.238 61.238 0 00-4.467 1.276c-2.765-1.063-2.127-5.317-6.168-4.892a635.88 635.88 0 005.317 14.676c-2.977-.638-5.53-1.063-8.508-1.702-.85-.638-2.126-1.701-3.615-2.552 1.276-1.063 2.977-2.34 4.466-3.403-1.701-2.34-5.53-2.34-5.317-6.594 0-1.914-3.19-2.126-4.892-.638-.425.426-.638 1.064-.851 1.489l-.851 1.702c-1.489-1.276-2.552-2.127-4.041-3.403-1.701 1.914-3.403 3.616-5.317 5.53-3.403-2.34-6.594-4.467-9.359-6.381 0-1.489-.213-2.552-.213-3.403-3.403-1.276-4.466 1.063-5.317 2.978-2.34.425-4.679.638-7.444 1.063-2.553-1.914-6.594.425-9.359-1.063-2.978-1.489-6.593.425-8.72-2.34-.851.638-1.489 1.063-2.127 1.489-2.34-.851-4.68-1.702-7.445-2.765-.212 1.276-.212 2.552-.212 3.616 1.488.212 2.552.425 4.466.638-1.489 1.701-2.339 3.19-3.616 4.466-4.041.213-7.019-1.276-10.209-3.403-2.765-1.702-6.594-1.701-10.422-2.765-.638.425-1.489 1.276-2.552 2.127.425.638.85 1.702 1.276 1.914 4.892 1.702 8.082 5.743 11.485 9.146 4.467.426 4.467.426 11.486 7.87 1.489-.426 2.765-1.064 4.041-1.489 1.489 1.489 2.552 2.765 3.616 4.041 5.955-.851 10.209 1.915 15.101 4.041-1.489.851-2.765 1.702-3.828 2.553v2.552c2.765 1.064 5.53 2.127 8.508 3.19 0 4.255-4.467 4.68-5.956 7.658 1.914 2.34 6.381 1.489 6.806 5.317 5.53 0 5.743.213 9.146 3.829-3.403-.426-6.381-1.064-9.146-3.829-.638-.213-2.127.213-2.977-.425-2.978-2.34-6.168-2.127-9.572-1.915-.425 1.064-1.063 2.127-1.489 2.978.639.425 1.489 1.064 2.127 2.34v-.638c.851.212 1.489.212 2.34.425 0 .213 0 .425-.213.85-.85 0-1.489-.212-2.339-.637-2.127-.426-4.467 0-6.381-2.34-1.702 2.552-3.403 4.68-5.105 7.02 1.489 1.063 2.765 1.913 4.041 2.977v2.127c1.489.638 2.978 1.276 4.68 2.127v-4.892c-.638-.638-1.277-1.49-2.127-2.34.425-.213.85-.638 1.063-.425 4.467 1.488 8.721 3.615 13.4 4.679 3.616.85 6.594 2.127 7.87 5.955.212.426 1.276.426 2.127.851-2.765 2.34-5.105-.638-8.083-.638-.638 1.064-1.489 1.914-1.914 2.765h-5.53c-.213-.638-.426-1.276-.851-2.127h-3.19v7.87c-2.765.85-5.105 1.489-7.445 2.127v2.978c1.064.212 2.127.425 3.404.638 0 .212-.001.638-.213.85-2.34 1.49-4.68 2.766-7.019 4.254.638.639 1.276 1.277 1.489 1.702 3.19.638 6.168 1.063 9.996 1.701-.638-2.34-1.488-4.253-1.488-5.955 0-1.701.85-3.19 1.276-5.105 1.489 0 2.765-.212 4.466-.212.638-.851 1.277-1.702 2.127-3.19 1.489-.426 2.978-2.553 5.318-1.277-1.276 3.19-.851 5.105 1.063 5.743 2.127.85 3.616-.638 4.68-4.892 4.891 2.127 9.783 4.041 14.463 6.168 1.701.85 3.403 1.914 3.616 4.892a559.426 559.426 0 01-14.038-4.467c0-.212 0-.425.212-.638h-5.742c.212.851.212 1.915.638 2.127 4.254 2.127 7.869 5.318 12.549 6.594 1.914.425 3.616 2.34 5.53 3.828-2.765 1.702-4.68.638-6.806-.638-1.064 1.49-2.34 2.765-3.191 3.829-3.403-.213-6.168.638-9.146-1.914-.638 1.063-1.063 2.127-1.489 2.765-2.552 0-4.041.425-5.955-.851-1.702-1.276-3.829-1.702-5.743-2.34-.851-.213-2.127-.85-2.765-.425-4.467 2.552-8.082.425-11.698-1.914-1.702-1.064-3.829-1.49-6.168-2.34.425-.85.638-1.702 1.063-2.765-.213-.638-.851-1.702-1.276-2.765h-5.105c-.638-1.276-1.063-2.34-1.914-3.616.851 0 1.914-.213 2.978-.213 1.063-1.914 2.339-4.041 3.615-6.168.213.213.639.213.851.425-.212 1.064-.638 1.915-.851 2.978 2.34.426 4.892.851 8.083 1.49.425-.214 1.063-1.064 1.914-1.915-1.063-2.765-2.127-5.53-3.19-8.083 1.063-.638 1.914-1.063 3.19-1.489-.638-1.063-1.276-1.914-1.701-2.764h-6.807c1.915 1.063 2.978 1.488 3.829 1.914-2.765 3.403-5.743 2.552-8.933 2.765-.851 2.34-1.915 4.892-2.978 7.231-1.702-.425-3.403-1.063-5.105-1.489-1.063 1.49-1.914 2.766-2.765 4.255-.638-.426-1.276-.639-2.127-1.064l-3.828 2.552c-2.34-1.488-4.042-2.552-6.168-4.04-1.277 1.7-2.766 3.402-4.254 5.53 1.701 1.275 3.19 2.552 5.104 4.04-.425.639-1.063 1.702-1.701 2.766-.638-.426-1.064-.851-1.702-1.49a98.12 98.12 0 01-4.466 2.127c3.403 1.702 6.168 3.191 9.145 4.68.213-.213.213-.426.426-.638 1.489 1.701 2.978 3.403 4.254 4.466 2.765.638 5.105 1.064 7.232 1.915 1.914.85 3.403 2.765 5.317 3.19 2.34.638 4.254 1.489 7.019 3.829l-3.403-.851c-4.892-1.702-9.997-3.616-14.889-5.53-1.489-.426-2.978-.851-4.254-1.49-2.552-1.275-5.317-2.339-8.295-2.126-1.489.213-2.552-.425-3.829-1.064-2.339-1.063-4.679-2.552-7.657-.212-1.701 1.276-4.466 1.063-6.38 1.489-1.702-1.277-3.191-2.34-4.68-3.404.213-.212.426-.638.851-.85 2.978-1.915 5.955-3.616 9.571-5.956 1.276-.425 1.915 1.914 3.829 2.765.638-1.489 1.063-2.765 1.701-4.254-2.339-1.276-4.466-2.34-6.168-3.19-.85-2.34 2.553-4.041.213-6.381-1.276-1.276-1.702-3.19-2.765-5.317-2.127 1.914-3.829 3.616-5.743 5.317-1.701.425-3.403 1.063-5.53 1.489v-3.403h-5.105c.426 2.765-.638 4.679-3.616 4.892v3.19h3.191c.213-.638.425-1.276.638-2.127h2.978v2.765c1.489.851 2.765 1.702 4.041 2.553l-1.276 1.276c.425.638.638 1.063 1.063 1.701l-1.914 5.105c-.638 0-.851-.213-1.489-.213.426-.85.638-1.489 1.064-2.34a12032.41 12032.41 0 01-4.254-4.253c-.426 1.489-.638 2.765-.851 2.977-5.956.426-9.359-1.701-12.549-4.892 2.127-2.552 3.828-.425 6.168.213.638-.425 1.489-1.276 2.978-2.765-1.489-1.276-2.553-1.914-3.616-2.765-.851.426-1.489 1.064-2.127 1.49-.851-.639-1.702-1.49-2.765-2.766l-4.467 3.829h-2.765c.213-.426.213-.851.426-1.064 1.276-1.701 2.977-3.19 3.828-5.105.851-2.34 2.34-3.403 4.467-4.254 2.765-1.063 1.489-4.466 3.403-5.955-1.063-.638-2.34-1.276-3.19-2.127-.639-.85-.638-2.127-.851-3.19h-3.616c.425 2.127.851 3.828 1.489 6.593-2.765-2.127-4.467-4.466-6.806-5.317-2.34-.851-4.892-1.276-6.807-3.403v-5.318h-3.19c-1.489 1.702.638 3.19.638 4.68 0 1.701-.851 3.19-1.276 4.679-2.34.85-4.68-.85-6.594 1.489-1.914-2.127-4.041-4.042-5.742-5.956h-4.467v4.254c2.127 1.914 3.616-1.063 5.53-.638 1.489 1.914-.851 4.892 1.063 6.168-1.488 1.49-2.977 2.978-4.892 4.68-2.552-1.915-3.403-4.892-3.19-8.296-1.914.426-3.403.638-4.679 1.064-2.34-1.489-4.254-2.978-6.168-4.254 1.488-1.489 2.765-2.978 4.679-4.892-1.914-.425-3.191-.638-4.254-.85-.213 1.063-.425 1.488-.638 2.126-.426.213-.638.425-1.064.425-1.063 0-2.552-.425-2.977 0-2.765 3.191-5.105-.85-7.657-.212-3.191-3.829-8.721-2.765-12.124-5.956-3.616.638-4.467-1.701-4.254-5.317-4.892 2.765-9.146 1.701-13.4-.85-2.127-1.277-4.466-1.915-7.657-3.404l-4.041-4.041c-1.914 0-3.829.425-5.53-.213-3.191-1.276-6.594-1.701-9.784-2.978-2.765-1.063-5.53-2.765-8.508-4.254h-5.105c.426.851.851 1.702.638 2.553 5.53-.638 9.572 2.127 13.188 3.828-.213.851-.638 1.702-.851 2.34-4.679-1.276-7.87-4.041-12.337-6.168-1.701-.426-4.679.851-5.53-2.978v.638c-1.276-.213-2.339-.213-3.616-.425.639-.638 1.064-.851 1.489-.851.638 0 1.489.213 2.127.851 1.702.425 3.191.425 4.892.425-.638-2.552-2.765-2.339-4.679-2.765-3.19-.851-6.594-1.701-9.571-3.403-5.53-2.978-11.911-3.828-17.654-7.444v-4.68h-3.19c-.851 1.277-1.489 2.34-1.915 3.191-6.806-2.34-13.399-4.467-20.206-6.806-.85.638-1.914 1.276-4.254 2.765 2.34.425 3.616.212 4.467.638 2.127 1.701 5.53 1.914 6.381 5.104 4.041 1.915 8.082 4.042 12.336 5.743 1.276.638 3.191.426 4.254 1.276 2.552 2.127 5.317 2.765 8.295 3.829 2.127.851 4.254.638 6.168 1.489 1.915 1.063 3.829 1.701 5.53 2.765 1.489 1.063 3.829 1.489 5.743 2.339 3.191 1.49 6.594 2.765 9.997 4.042 2.978 1.063 5.743 2.977 8.72 3.828 1.277.425 2.34 2.127 3.616 3.616-2.765 2.127-4.892 2.34-8.082 1.489-6.594-1.914-12.762-4.68-19.355-6.381-1.489-.425-2.553-1.702-3.829-2.34-4.041-1.701-7.87-3.828-12.124-4.679-2.552-.425-3.828-3.19-6.806-2.978-2.127.213-4.466-1.701-6.593-2.765-1.702-.851-3.191-2.127-5.318-1.914-.638 0-1.489-.213-2.127-.851-1.701-1.701-4.041-1.914-6.168-2.978-4.679-2.552-9.784-4.041-14.676-5.955-2.552-1.064-5.105-1.702-7.444-2.552-1.915-.638-3.829-1.489-6.594-2.553-.213.426-.425 1.489-1.063 2.978-.426-.213.212.213.85.425 5.318 1.489 10.21 4.042 15.102 6.381 4.466 1.915 9.146 3.403 13.825 4.892 3.829 1.276 7.444 2.978 11.698 4.254-4.466.638-4.466.638-8.72-1.914-4.254 1.276-7.657-1.914-11.486-2.978-3.19-.851-6.168-2.765-9.784-3.19-1.914-.213-3.828-1.702-5.743-2.34-6.168-1.701-12.123-4.254-18.717-5.317-.425 0-.638-.638-.425-.426-.851.426-1.702 1.064-2.765 1.489a28.96 28.96 0 011.701 2.34c-.212.213-.425.638-.85.638-4.467-.213-8.721-1.702-12.762-3.191-5.53-2.126-10.848-4.466-16.378-6.38-1.276-.426-2.765 0-4.892 0 .851 1.488 1.276 2.765 1.915 3.19 4.041 1.702 7.444 3.829 10.847 6.594 3.19 2.552 6.806 4.041 10.848 4.892 1.701.425 2.977 1.276 2.552 3.19-5.53.425-5.53.425-9.359-.851-.212.638-.425 1.064-.638 1.915 7.232 2.765 14.676 4.041 22.546 5.742-.426-.85-1.064-1.489-2.127-2.765 1.701.213 2.34.213 3.19.426-.212 1.063-.425 1.701-1.063 2.339-.213 2.127 1.914.851 2.978 1.276 7.231 2.553 14.038 5.53 21.269 7.658 7.445 2.34 14.251 6.168 21.695 8.082 2.34.638 4.254 2.765 6.594 2.978 2.765.212 4.892 2.34 7.444 2.765 2.552.425 4.679 1.701 6.806 2.552 2.34 1.064 4.892 2.127 7.445 2.978 4.892 1.701 9.146 4.466 13.825 6.806 4.254 2.127 9.146 3.403 13.825 5.105.213.212.425.425 1.702 1.276-3.829-.638-6.594-.85-9.359-1.276.213 1.276-.638 2.977.851 3.828.851.638 2.127.851 3.19 1.064 2.553.212 4.041 2.765 6.806 3.19 2.978.426 5.531 2.127 8.508 3.403v2.34c4.892 3.403 10.21 4.68 15.102 7.019 4.679 2.34 9.784 4.254 14.676 6.168 4.466 1.702 8.72 3.829 13.187 5.317.851.213 1.276 1.49 2.339 2.765-2.339.213-4.466.851-5.104.213-1.915-2.127-4.68 0-6.594-2.127-1.489-1.489-4.041-1.914-5.955-2.977-7.445-3.404-15.102-6.807-22.971-9.572h-.639c-5.742-4.466-13.399-5.317-19.567-8.933-4.042-2.552-8.934-2.765-13.4-5.105 0-.212-.213-.85-.213-1.488-2.765-.639-5.317-2.127-8.508-1.702.851.85 1.702 2.552 2.34 2.34 3.19-1.064 4.892 1.701 6.806 2.765 2.34 1.488 4.467 3.615 7.232 4.466 2.552.638 4.892 2.127 7.444 2.978 3.191 1.063 5.955 3.19 9.359 4.041 3.19.638 5.743 3.19 9.146 3.19 5.104 4.467 12.336 4.68 18.079 8.083 4.466-.213 7.231 4.254 11.698 4.467.638 0 1.063 1.063 1.702 1.701-.426.638-.851 1.276-1.702 2.34 4.679 1.914 9.146 4.041 13.612 5.743 1.489.425 2.34 1.063 2.765 2.977v-.638c.851.213 1.489.213 2.34.426 0 .212 0 .425-.213.85-.85 0-1.488-.212-2.339-.638-2.34-.212-4.68-.85-6.806-1.701-5.956-1.915-11.911-3.829-17.654-6.168-.851-.426-1.702-1.064-2.978-1.915 1.702-.425 2.978-.638 4.679-.85-2.552-.639-4.041-2.765-6.593-1.49.213.426.638.851 1.063 1.49-.425.212-.85.425-1.063.638-.426.212-1.064.425-2.127 1.063-1.489-1.063-3.403-2.552-5.317-3.828.638-.639.85-1.064 1.701-2.127-1.702 0-2.765 0-5.53.638-.638-.213-.425-.638-.213-.638.638 0 1.064.425 1.702.425-.638.213-1.489.425-1.489.213.638-2.978-1.702-1.915-3.403-2.978-1.914-1.276-4.892-1.276-7.232-1.276-2.339 0-4.254-1.914-6.806-1.489-.851.213-2.127-.85-3.19-1.063-7.232-2.553-14.464-5.53-21.908-8.083-4.041-1.276-8.083-3.19-12.124-4.68-6.381-2.339-12.549-5.104-18.93-7.656-2.339-.851-4.679-1.49-7.019-2.127-2.339-.638-4.041-2.553-6.168-2.978-2.34-.425-3.828-1.914-5.743-2.552-3.19-.851-5.742-2.978-8.72-4.042-2.765-1.063-5.956-1.276-8.295-3.615-.426-.426-1.489 0-2.34 0-1.063-1.064-1.914-2.127-2.978-2.978l1.064-1.064c-1.914-.85-3.616-1.914-5.956-2.977h-7.657c.638 2.552 2.127 3.616 4.042 4.679 5.53 3.616 12.123 4.467 17.866 7.232 2.978-.638 4.254 3.616 7.444 2.765 1.276 1.489 2.978.638 4.467.85 3.19 4.254 9.784 2.765 13.187 7.445-2.552 1.063-2.552 1.063-6.168-.213-.851 2.34.638 2.978 2.552 3.616 1.915.638 3.829 1.489 5.743 2.34 0 1.914.213 3.19.213 4.679 1.489.85 2.977 1.914 4.466 2.978.213 1.063.426 2.127.426 3.403 5.104 3.828 11.06 5.317 16.59 7.444 5.105 1.914 10.635 2.978 15.527 5.105 4.892 2.127 9.996 2.977 14.888 5.743 2.34 1.276 5.318 1.914 8.083 2.765.851.212 1.701.638 2.552 1.063 6.381 2.978 13.187 4.254 19.568 7.657 1.064.638 2.552.638 3.829 1.276 2.127 1.277 4.466 1.915 6.806 2.553 2.978.85 6.381 2.127 8.721 4.679l.212-.213c.426.213.638.638 1.064.851l-.426.425c-.212-.425-.638-.638-.85-1.063-5.956.425-11.061-2.34-17.016-4.892-3.616.85-7.657-2.765-12.337-.85 5.105 1.488 9.997 3.402 15.102 4.253 3.403.425 6.381 2.127 9.146 3.19 2.765 1.277 6.168.851 8.508 2.978 3.403-.85 5.955 1.49 8.507 2.765 2.978 1.49 5.743 2.765 8.934 3.829 2.339.638 4.466 1.489 5.955 3.403.638.85 2.127.85 3.616.638 1.276 1.276 2.34 2.765 2.978 3.403 3.828 1.489 6.806 2.552 9.784 3.829.638.425 1.063 1.488 1.489 2.552 1.276.638 2.977 1.276 4.466 2.127 0 .638-.212 1.064-.212 1.702-.426.212-1.064.425-1.277.212-4.679-2.765-9.996-3.403-14.676-5.955-2.339-1.276-4.466-2.553-7.231-3.403-3.829-1.064-7.232-3.19-10.848-4.68-2.978-1.276-6.168-1.276-9.571.213-.425-.638-1.064-1.702-1.702-2.765-3.828 3.403-7.444.85-10.635-.213-5.317-1.701-10.422-4.466-15.952-5.955-1.701-.426-3.403-.851-4.892-1.276-6.381-2.34-13.187-3.19-19.355-6.807-.851-.425-2.34 0-3.616 0-.212-.638-.425-1.063-.638-2.127-1.276 0-2.765-.212-4.679-.425 0 1.276-.426 2.552 0 2.978 1.276 1.276 2.765 2.978 4.254 2.978 3.403 0 5.955 1.701 8.72 3.19.851 3.616 4.467 4.041 7.87 4.892-.425 1.914-.638 4.041-1.276 6.593 7.87 4.042 16.165 8.508 24.46 12.762-.213.213-.213.426-.426.851-4.679-1.063-9.358-2.127-14.037-2.978-.851.426-1.702.638-2.553 1.064 0 .212 0 .638.213.85 1.489 1.915 3.403 3.404 5.743 3.616 1.276.213 2.127.639 3.19 1.49 1.702 1.275 3.403 2.552 5.743 2.339.638 0 1.701.213 2.127.85 1.063 1.915 3.19 1.277 4.679 2.128l-1.701 2.552c.85.638 1.914 1.276 2.977 2.127 4.467-2.552 8.295-.426 12.337 1.489 2.339 1.063 4.892 1.914 7.231 3.19 2.34 1.49 4.892 2.34 7.019 3.616 1.064.638 2.127 1.064 3.403 1.702-2.127 1.063-5.104.425-5.317 3.403-.213 1.914.638 2.977 2.552 3.616.638-1.49 1.277-3.19 1.915-4.892 2.127 0 4.466 3.828 6.168 0 8.082 3.615 15.527 7.018 23.609 10.634.425 1.276 1.063 3.403 1.702 5.956-1.277.85-2.765 1.489-4.892 2.978-.213 0-1.489-.639-3.404-1.277-.425.638-.85 1.49-1.488 2.34 3.615 4.68 9.784 5.956 14.676 9.571 1.063.638 2.765.426 4.253.638 2.127 2.34 5.318 4.042 7.232 7.02 1.276 2.126 4.254 1.276 6.168 2.552 1.064.638 2.127 1.063 3.191 1.701-3.191 2.127-4.68-1.276-7.019-1.701h-6.168c-.851 1.276-1.702 2.552-2.553 4.254a78.613 78.613 0 01-6.168-2.765c-1.489 1.063-3.403 2.977-5.317 3.19-2.34.425-4.254 1.276-6.381 2.34-1.276.425-2.978 0-4.467-.426-1.489-.425-2.978-1.063-4.041-1.914-2.765-1.914-5.317-3.19-8.933-2.127-1.915-4.467-6.381-4.892-9.784-6.168-4.254-1.702-8.295-3.616-12.549-5.317-11.699-4.254-23.184-9.36-35.095-12.975-5.317-1.701-10.847-3.828-16.803-4.254-1.489 0-2.978-2.127-5.105-.425 1.915 3.19 4.68 4.892 8.295 5.743 2.553 1.914 5.318 4.254 8.083 6.38-4.679 2.34-7.87-1.914-11.911-1.914-.425.851-.638 1.702-.851 2.34-3.19.85-6.168 0-8.082-1.489-3.829-.85-7.232-1.063-9.784-2.552-2.765-1.702-5.53-1.702-8.508-1.915-2.552-.212-5.105.638-7.657-1.063-1.276-.85-3.403 0-5.318 0 .426 2.552 2.127 3.828 3.829 4.68 2.978 1.275 5.317 3.615 8.933 3.615 4.254 3.829 10.21 4.041 14.889 7.232 3.403 2.34 7.232 3.19 10.847 4.679 3.403 1.489 7.019 2.765 10.422 4.254 3.829 1.701 7.658 3.19 11.486 5.105 2.34 1.276 4.679 3.828 7.87 3.403 2.339 2.765 7.019 1.914 8.508 5.955.425.851 2.339 1.064 3.615 1.489 4.467.851 8.083 4.041 12.549 5.317.851.213 1.277 1.702 2.765 3.616-2.339-.638-3.615-.638-4.891-1.063-7.445-2.978-14.889-5.318-22.546-7.657-.638-.213-1.276 0-1.914 0 3.19 2.127 5.104 2.977 9.783 4.041v1.701c-.425.213-.85.426-1.063.426-3.19-1.276-6.168-2.552-9.359-3.829-1.701-.638-3.615-1.063-5.317-1.701-1.701-.638-3.19-1.702-5.317-1.914-2.34-.213-4.892-1.064-7.019-2.34-5.53-3.403-12.124-4.467-17.654-7.444-.213-.213-.213-.639-.425-1.064-.851-.213-2.34.638-2.127-1.701-.426.212-.638.212-.851.425-.426.425-.851.851-.426.425-1.063-.212-1.914-.638-2.765-.85.213-.213.426-.639.638-.851 1.064 0 2.127.212 3.616.851.638.638 2.127-.213 2.127 1.701 4.467-.638 8.083 1.914 11.911 2.978 1.276.425 2.552.425 3.829.638-2.978-2.765-7.019-3.191-10.422-4.892-2.765-1.276-5.743-1.702-8.508-3.403-2.34-1.49-5.318-2.127-8.083-2.765-4.892-1.064-9.784-1.49-14.463-3.616-2.127-.85-5.105 0-7.657 0v1.701c4.041 2.553 8.933 3.616 13.613 7.87-6.594-1.276-11.486-4.254-17.654-3.403 2.978 3.403 5.955 6.168 9.784 7.657 5.105 2.127 9.571 5.53 14.889 6.806 2.339 2.765 5.955 2.127 8.933 3.616 2.978 1.489 6.168 2.127 8.72 3.829 3.191 2.127 6.594 3.616 10.21 5.104.425.213 1.063.851 1.489.851 3.828-.425 5.955 2.765 8.933 4.254-2.978 1.702-5.318 2.552-8.721.851-5.105-2.34-10.847-3.403-16.165-5.105-.85-.212-1.701-1.063-2.552-1.063-1.276-.213-2.765 0-4.041 0-1.276 2.127.851 3.616 1.276 3.616 3.19-.426 5.105 2.552 8.082 2.765 2.765.212 5.105 3.19 7.657 3.19 4.892.213 8.296 3.829 12.975 4.467 6.593 1.063 11.698 5.317 17.866 7.019 6.168 1.701 11.911 4.892 17.867 7.231 2.765 1.064 5.742 2.34 7.869 4.68.639.638 1.489 1.063 2.765 1.914 0 1.489.639 3.19 2.127 4.679 1.489 1.276 4.042 1.064 4.254 4.041-.85.426-1.701.638-2.765 1.276.638 1.064 1.064 2.34 1.915 2.766 5.317 1.914 9.358 6.806 15.101 7.869 2.978 3.403 7.232 4.041 11.06 5.956 2.34 1.063 4.467 2.127 6.381 4.041 1.063 1.063 2.552 1.914 3.829 2.552 2.765 1.702 5.53 3.191 8.507 4.68 2.553 1.488 5.956 1.488 8.083 4.254 5.317.638 8.933 4.253 13.187 6.593-.638 1.914-1.064 3.616-1.702 5.105 4.892 3.19 9.359 6.381 14.251 9.146 6.806 3.616 13.4 7.657 19.993 14.038-2.127-.639-2.765-.851-3.616-1.064-3.615-1.276-6.593-3.403-10.422-4.466-1.914-.639-3.828-.213-6.38-1.277-.639-.425-1.489-1.276-3.191-2.765-.851 1.489-1.701 2.978-2.765 4.68 0 0 .425 1.063 1.064 1.914.425 0 .85.213 1.063.213 5.743-1.489 7.444-1.489 12.124 2.126 2.339 1.702 5.317 1.489 7.231 3.404 1.915 1.914 4.254 3.403 7.019 2.977.213 1.064.426 1.489.638 2.127 1.064.213 2.34.426 3.191.851 2.552 1.276 4.892 3.191 7.444 4.254 2.127.851 3.829 2.552 6.381 2.552.851 0 1.489 1.489 2.34 2.34 2.339-.213 4.679.213 6.168 2.552l.212-.212c.426.212.639.638 1.064.85l-.425.426c-.213-.426-.639-.638-.851-1.064-2.127-.212-5.105 1.064-6.168-2.552-1.915.213-3.404-.638-5.105-1.063-1.702-.426-3.403-.426-4.892-1.915-1.064-1.063-3.403-.638-4.892-1.489-6.594-3.615-14.038-4.679-20.632-7.869-2.977 1.276-3.615-3.403-6.38-2.553-1.702-1.701-4.467-.85-6.169-2.977-.85-1.064-3.19-.851-4.892-1.489-2.127-.638-4.253-1.489-6.593-2.127-.638.851-1.276 1.489-1.914 2.127.212.212.212.638.425.638 5.105 2.978 10.209 6.168 15.314 9.146.851.425 1.914.638 3.191 1.063 1.063 1.064 2.339 2.553 3.615 4.041l2.553 5.105c-.851.638-2.127 1.489-3.829 2.552 1.064 1.064 1.702 2.765 2.34 2.765 4.466 0 7.657 3.616 11.698 4.467.425 0 .638.638.851.851-.426 1.276-.851 2.34-1.276 4.041 4.466 2.34 8.933 4.467 13.187 6.594 4.254 2.127 8.295 4.466 12.549 6.381 2.765 1.276 5.53 2.977 8.508 3.19 2.765.213 3.615 2.127 5.955 3.616h-5.317c-3.829-1.702-7.019-3.403-10.422-4.68-3.191-1.063-6.381-2.127-9.572-3.615-1.914-1.064-4.254-1.489-6.38-2.127-4.254-1.489-8.721-2.765-12.975-4.254-3.616-1.276-7.232-2.127-10.635-4.254-1.276-.851-3.403-.213-5.955-.426.425 1.915.851 3.616 1.489 5.318-.426.638-.851 1.489-1.276 2.34 2.339 3.615 7.018 3.19 10.422 5.53-1.064.85-2.127 1.488-2.978 2.127 0 3.403 2.978 3.828 4.679 4.253 4.041 1.064 7.444 2.978 10.422 5.956 1.064 1.063 2.34 2.127 3.829 2.552 4.254 1.489 9.146 1.702 12.549 5.105 4.041-.425 6.806 2.34 10.209 3.616 2.127.851 3.616 2.339 4.041 4.679 1.915.426 4.042.213 4.467 3.191 0 0 .213-.426.213-.851 2.127.638 4.041 1.489 6.168 2.127-.213.851-.213 1.276-.426 1.914-1.914-.851-4.041-1.702-5.955-2.978-2.127-.851-4.892-.851-6.594-1.914-4.253-2.765-9.358-3.829-14.038-6.381-3.19-1.701-6.38-3.828-9.783-4.254-3.829-.638-6.381-3.403-9.997-4.041-2.978-.425-5.743-2.765-8.721-4.254-.85-.425-1.914-.425-3.615-.851-.639-.85-1.702-2.127-2.553-3.19-1.489 0-2.552-.213-3.828-.213 1.276-1.276 2.127-2.127 2.765-2.978v-4.041c-1.064 0-1.915 0-2.978-.212a776.675 776.675 0 01-5.743 6.38c2.978 2.765 6.806 3.829 10.21 5.956 3.19 1.914 6.593 3.828 9.784 5.743 0 .425 0 .85-.213 1.701-1.702-.425-3.191-1.063-5.317-1.701-.426 1.063-.639 2.127-1.277 3.828l2.127 2.127c-2.552.851-5.104.213-7.444 1.489s-2.34 4.467-5.956 4.467c-2.765-1.277-6.168-2.765-9.571-4.254-1.489 1.701-3.19 1.701-4.892 0l-1.701 1.701c1.488 2.765 3.19 5.53 1.914 9.146-3.829 1.276-7.232-.851-11.273-2.339a19.359 19.359 0 01-1.702 2.765h-10.847c.638 3.19.638 3.403 4.467 5.317v5.955c2.977 3.616 6.593 6.169 11.06 6.807 1.701.212.851 2.977 3.19 2.765.851-.213 1.914 1.489 2.978 2.765v-.638c.851.212 1.489.212 2.34.425 0 .213-.001.425-.213.851-.851 0-1.489-.213-2.34-.638-2.765-.851-5.317 0-8.082-1.489-1.914-1.276-5.105.638-7.445-1.276-.85-.638-2.765 0-4.253-.213-1.277 0-2.34-.425-3.616-.638-.851-.213-1.489-.425-2.765-.638-1.915 1.489-4.467 3.19-7.019 5.105l-3.191-1.064c-.212.213-.85.638-1.063 1.064l3.828 3.828c-.85.638-1.063 1.064-1.489 1.064-3.615.425-6.806-1.064-10.209-1.915-3.19-.851-6.168-2.127-9.784-1.701-2.34.212-4.892 0-7.657 0 2.34 1.701 4.041 3.19 5.955 4.892 1.064 0 2.553-.213 3.616.425 4.892 2.765 10.422 3.616 15.314 5.743 2.765 1.276 5.743 2.127 8.508 3.19 4.254 1.915 8.721 1.702 13.4 1.489-2.765-3.828-6.806-6.168-8.933-9.996 2.978-2.978 5.743 1.488 8.508 0 .212-.426.212-1.064.425-2.127 2.978 0 6.168-.213 9.359 0 2.765.212 5.742.85 9.571 1.276-2.127-1.276-3.191-2.553-4.041-2.553-3.191.213-6.169-.638-9.359-1.276-.638 0-1.276.851-1.489.851-1.914-.425-3.616-.638-5.317-1.064-1.914-.425-3.829-.638-5.53-1.276-1.489-.638-2.978-1.914-5.105-3.19 4.467-.851 7.87-.851 11.273 2.127 6.594-1.064 12.549 3.828 17.866 2.552 5.318 1.702 9.359 2.978 13.187 4.254v1.276c-3.615-.638-7.231-1.276-10.847-2.127 3.616 3.829 8.082 5.318 12.549 4.892 2.765-1.914 1.702-4.254 1.914-6.381-1.914-3.19-5.317-4.679-7.869-7.869 2.765.425 5.104.638 7.444 1.063 0 .213.213.851.638 1.702 1.914.425 4.254 1.063 6.806 1.489v-3.191c-1.063-.851-3.828-.851-3.19-4.041 6.381.425 11.273 6.168 18.292 6.168-.426-2.765-1.915-4.041-3.829-4.892-.851-.425-1.489-1.489-2.127-2.765 0 0-.213.213-.213.425-.638 0-1.488.001-2.339-.212 0-.851 0-1.489.213-2.34 1.063.638 1.914 1.276 2.552 2.127 4.467.213 8.933 1.276 13.187 3.191 3.19 1.488 6.594 2.339 10.847 3.828a71.331 71.331 0 01-5.53 4.041c-3.403 1.489-5.955-2.765-9.784-2.339-1.063 1.701-2.127 3.828-2.977 5.317.638 4.467 3.615 3.19 5.955 3.616.213.638.213 1.063.426 2.127 1.276 0 2.764.212 3.615.212 1.489-2.339 2.553-4.466 3.616-6.168h4.254c1.702 2.127 5.105 2.978 5.53 6.381-.425.851-.851 1.489-1.489 2.765 1.276.638 2.553 1.489 4.467 2.34.638-1.064 1.276-2.127 1.914-3.403.638-1.064 1.064-2.34 1.914-3.829 1.702 1.489 2.765 2.34 4.042 3.403 1.276-1.488 2.339-2.977 2.765-3.403 5.53-1.276 8.082.851 10.847 3.829-1.489 1.063-2.765 2.127-4.254 3.19l3.191 3.191c2.977.638 5.317 1.063 7.869 1.488l.851-.85c.213 0 .638.212.851.212.638.638 1.276 1.064 1.702 1.702.638 1.276.85 3.19 1.914 4.041 1.063 1.064 3.19.851 4.041 1.914 1.702 1.915 3.403 1.702 5.53 1.489.213-.212.425-.212.425-.425v-4.254c-1.063-.638-2.552-1.276-4.679-2.34-1.489-2.127-3.403-5.104-6.168-8.933-.425-.213-1.914-.851-3.616-1.063-2.552-.638-2.978-2.34-2.552-4.467.212-.213.213-.425.425-.425h3.616c1.702-1.064 3.19-2.127 4.892-3.403 1.489.85 3.403 1.701 5.53 2.765-.213 1.063-.425 2.339-.851 4.041.213.638.851 1.701 1.702 2.978 1.914-1.064 3.828-1.915 5.53-2.766 3.616.851 6.593 2.34 9.571 4.467 0 .851.213 1.702.213 2.765h5.317c.851 1.064 1.915 2.127 2.978 3.403-4.679 1.915-9.359-1.276-14.038-.638-1.489 1.276-2.552 2.553-1.489 4.679a1601.1 1601.1 0 0015.74 1.915c-1.276 1.063-2.553 1.914-4.041 2.978.212.85.638 2.339 1.276 4.253 2.552-1.914 4.466-3.19 6.593-4.679-.638-2.765-1.063-5.105-1.701-8.295 4.892 2.552 8.933 5.105 13.4 6.806 4.466 1.914 9.571 1.914 13.612 5.743 0-1.276 0-1.702.213-2.34-.851-.212-1.489-.638-2.553-1.063.426-1.489.851-3.191 1.489-5.105a743.27 743.27 0 01-6.593-1.489c-2.553 1.064-2.553 1.064-7.019-.85.425-1.489.851-3.191 1.489-4.68-2.553-3.403-6.594-3.19-9.572-4.892-1.063-2.127-1.914-4.466-3.403-7.444 4.68.851 8.083 5.53 12.549 1.914-.425.851-.851 1.489-1.276 2.34.638.638 1.064 1.276 1.489 1.701 4.041.426 7.87 1.064 11.911 1.489v9.146l3.403 1.702c2.978-2.34 6.594-3.829 10.209-5.105v-2.978c-3.828.213-3.403-4.254-6.168-5.743 1.276-1.063 2.553-1.914 4.041-2.977 6.381 4.466 14.677 6.806 21.696 10.847 4.04.638 4.679-3.403 7.231-5.104 3.616 1.276 7.444 2.339 10.635 4.041 1.914 1.063 3.616 1.276 5.53.638 2.127-.851 4.467-1.914 6.594-1.702 3.615.426 8.082.213 9.145 5.53-.212.213-.638.851-1.276 1.702.638.638 1.276 1.489 2.127 2.127h4.041c.851 1.276 2.127 2.552 3.19 4.041 2.766-2.127 5.106-3.828 7.02-5.53v-2.765l-5.53-2.765c1.701-1.702 2.765-2.978 4.04-4.254 3.404 1.489 6.382 2.978 10.21 4.679 3.19.851 7.02 1.915 11.273 2.978-.638.851-1.063 1.489-1.489 2.34a66.5 66.5 0 002.34 2.977c1.489-.85 2.978-1.701 4.467-2.339 2.34.851 4.679 1.701 7.231 2.552 1.914.851 1.064 3.616 4.041 4.679 1.49.426 2.553 3.191 3.829 5.318 1.276-1.064 1.914-1.702 2.765-2.34-1.276-2.978-5.105-3.19-5.743-6.381 2.765-.425 2.765-.425 5.318 1.915 1.701-2.34 4.254-.639 6.168-1.277 2.127-2.977-1.915-4.254-2.765-7.019 5.104 0 8.72 1.915 12.761 3.404 4.892-1.915 10.21-2.978 16.165-2.34a47.412 47.412 0 00-.85-4.892c.212-.426.638-1.489 1.488-3.191a576.33 576.33 0 004.68 4.042c1.063-.851 2.127-1.915 3.616-3.403-1.277-1.489-2.553-2.765-3.616-4.042-2.34.638-4.68 1.064-6.168 1.489-6.169-4.254-11.699-8.082-17.442-11.911.213-.425.639-1.063 1.277-1.701-.426-.638-1.064-1.276-1.49-1.915.213-.212.639-.638.852-.425 3.403 1.064 6.593 2.765 9.57 4.892 1.064.851 2.34 1.064 3.83 1.702.425 1.063.85 2.552 1.063 3.19l1.063 1.064c1.277-.426 2.34-1.064 3.829-1.702.425 1.276.638 1.914.85 2.765h2.978l2.553-2.552c.425 1.063.85 2.127 1.489 3.615 1.276-1.488 1.701-2.126 2.552-2.977-.425-1.489-.85-3.403-1.489-5.318h-3.828c-1.064.851-2.127 1.702-3.616 2.765-.638-1.276-1.276-2.339-1.915-3.828.639-.425 1.702-1.064 2.34-1.276v-3.403c-3.616-1.277-6.593.212-9.571 2.127-1.276-.639-2.553-1.064-3.616-1.702-1.063-.851-1.914-1.914-2.765-2.765.638-2.552 2.127-3.191 4.68-2.978.85 1.064 1.913 2.553 2.977 3.829 1.914-1.276 3.403-2.127 4.68-2.978v-2.765l-1.915-1.914c-1.489.425-3.19 1.063-4.892 1.489-.425-1.064-.638-1.702-1.063-2.978-1.702.212-3.404.425-6.169.851-.212-.213-.85-1.277-1.701-2.553-1.276 1.064-2.127 1.914-3.19 2.765l1.276 3.829c-.426 0-1.277.425-1.49 0-1.275-1.064-2.339-2.34-3.615-3.616-4.892.851-8.933-1.063-12.762-4.041-1.701-1.276-3.828-1.702-5.743-2.34-3.615-1.489-7.019-3.828-10.634-5.317-3.404-1.489-6.807-3.403-10.422-4.68-.426-.212-.851-.85-1.702-1.701 2.765-.213 4.892-1.276 6.38-3.616v-2.552a46.662 46.662 0 00-3.828-.638c.638-1.064 1.277-2.127 1.277-2.978 0-1.276-.851-2.552-.851-3.616 0-1.063.85-2.127 1.063-3.19-1.489-1.064-2.765-1.702-4.466-2.978 2.552-1.064 5.742.638 6.806-2.978-.426-.425-1.064-1.276-1.702-2.127h-5.317c-.213-.638-.426-1.276-.426-1.914.426-1.489 1.064-2.765 1.49-4.254 4.253-1.063 7.018 1.914 10.209 3.403 1.914-.425 3.828-.851 5.955-1.276.638 1.914 1.276 3.616 1.702 5.105h4.68c1.275-5.318 1.488-5.53 7.443-3.404.851 2.766 1.915 5.956 2.765 9.359H2.736c0-.425-.213-1.063-.426-1.914H-.88v5.105c1.489-.639 2.34-1.277 3.19-1.489 2.127 2.127 4.254 4.254 6.381 6.168 1.276-1.489 2.34-2.765 3.403-4.254-.212-.213-.638-.851-1.276-1.702 1.064-.212 1.914-.212 3.19-.425.639-1.063 1.277-2.34 1.915-3.616-.425-.638-.85-1.276-1.276-2.127h6.168c-1.489 1.064-2.765 2.127-4.467 3.403 1.915 1.064 3.404 1.915 4.68 2.765 1.063-1.488 1.914-2.765 2.765-4.041l1.914 1.914c-.425.426-.638.851-.85.851a91.144 91.144 0 002.764 6.806h4.467c.638-.638 1.701-1.914 2.977-3.403 3.404 4.892 9.997 6.594 12.337 12.975-.213.212-.425.851-1.064 1.701.639.851 1.49 1.489 2.34 2.765l2.552-1.914v-6.593c.213 0 .426.212.639.212 1.276-3.403 2.552-6.806 3.615-9.996 2.34 2.127 2.978 3.403 3.19 7.019-1.063 1.701-2.339 3.403-3.615 5.317 3.403 3.616 7.019 1.701 11.06.213-.213-1.277-.425-2.765-.85-4.254 1.063-.426 2.339-1.064 3.828-1.702.85 1.702 1.489 3.403 2.34 5.105h7.444c1.063 1.276 2.34 2.552 4.041 4.254-2.552 1.063-4.68 1.914-7.019 2.765.85 1.914 1.914 3.828 3.403 6.381.638.425 1.915 1.488 3.616 2.765-1.063.638-1.489 1.063-1.914 1.063-2.765-.425-5.318-1.063-7.87-1.489-.638 1.276-1.276 2.34-1.914 3.616.85.638 1.914 1.276 3.403 2.34 0 .425.213 1.489.213 2.339 1.276.638 2.34 1.277 3.403 1.702 4.04-1.276 5.317-5.105 7.231-7.87a12.148 12.148 0 01-.85-1.489c.212-.212.425-.425.85-.638 1.277.851 2.553 1.915 3.616 2.765 2.34-.85 4.467-1.701 7.02-2.552l1.275 2.552h2.553c1.276-1.489 2.765-2.765 4.254-4.466.212-2.978-1.702-5.318-4.042-7.445 1.277-1.489 2.34-2.765 3.404-3.828h3.19c-.425 2.978 1.063 4.679 3.828 5.317v1.489c-.638 1.914-1.276 3.829-2.126 5.956a862.035 862.035 0 014.253 7.869c1.277-1.701 2.34-2.552 2.553-3.828.212-.851-.426-1.914-1.064-3.829 1.064.638 2.34 1.064 2.34 1.489.213 2.978 1.914 5.105 3.828 6.806-.425 1.702-1.063 3.404-1.488 4.892 1.489.638 2.339 1.277 3.403 1.702l1.701-1.702c2.127.213 3.829.639 5.743.851.851-2.978 0-4.679-2.978-5.317-.212-1.064-.212-2.127-.638-3.191-.425-1.063-1.489-1.701-2.339-2.552 1.063-2.978 1.914-5.743 2.977-8.721-.851-1.276-1.914-2.552-2.977-4.041 1.276-.638 2.339-1.276 3.615-1.914 1.489 3.19 6.594 2.127 8.083 6.806-1.276.213-2.34.426-3.829.638v4.467c1.277 1.063 2.978 2.552 4.68 3.828v-1.914c.85-.425 1.701-.638 2.127-1.063-.426-1.064-.638-1.914-1.489-4.041 2.552 1.488 4.466 2.127 5.742 3.19 2.127 1.914 3.829 1.276 5.956 0-.425-.851-1.063-1.489-2.127-2.765 1.702.213 2.34.213 3.191.425-.213.851-.426 1.702-1.064 2.34-.425.638-.425 1.489-.425 2.552l3.828 3.829c1.064-1.064 2.127-2.127 3.403-3.191a98.825 98.825 0 014.041 4.892c1.489-2.977 1.489-5.104-.85-6.806l-1.915 1.276c-1.701-1.063-3.19-2.127-5.104-3.403.212-.638.638-1.489 1.063-1.914 2.34 3.19 1.914 2.127 1.702 1.063-2.127 0-4.254.213-4.892-2.552l-.638.638c-.638-.851-1.064-1.701-1.915-2.978.851 0 1.489 0 2.34-.212 0 1.063.213 1.701.213 2.339 2.127.213 4.254 0 4.892 2.765zm-575.129-241.41l.213-.212c.425.213.638.638 1.063.851l-.425.425c-.213-.425-.638-.638-.638-1.276 0 0 0 .213-.213.213-.213-.213-.638-.638-1.063-.85l.425-.426c.425.425.638.638.638 1.276zM-269.94-42.78l.213-.213c.425.213.638.638 1.063.851l-.425.425c-.213-.425-.638-.638-.638-1.276 0 0 0 .213-.213.213-.213-.213-.638-.638-1.063-.85l.425-.426c.425.425.638.638.638 1.276zm-13.187 383.49l-.213.213c-.425-.213-.638-.638-1.063-.851l.425-.425c.213.425.638.638.638 1.276l.213-.213c.213.213.638.638 1.064.851l-.426.425c-.425-.425-.638-.638-.638-1.276zm98.053-96.776l-.213.212c-.425-.212-.638-.638-1.063-.851l.425-.425c.212.426.638.638.638 1.276 0-.212.213-.212.213-.212.212.212.638.638 1.063.85l-.425.426c-.213-.426-.638-.851-.638-1.276zm245.238 52.748l-.213.213c-.425-.213-.638-.638-1.063-.851l.425-.425c.213.425.638.638.638 1.276 0-.213 0-.213.213-.213.212.213.638.638 1.063.851l-.425.425c-.426-.425-.638-.851-.638-1.276zm117.62-66.361l-.212.213c-.426-.213-.639-.638-1.064-.851l.425-.425c.213.425.639.638.639 1.276 0 0 .212 0 .212-.213.213.213.638.638 1.064.851l-.426.425c-.212-.425-.638-.638-.638-1.276zM-352.04 22.943v-1.064c.85.213 1.488.213 2.339.426 0 .212 0 .425-.212.85-.851 0-1.489-.212-2.34-2.126v1.063c-.851-.213-1.489-.213-2.34-.425 0-.213 0-.426.213-.851.851.213 1.702.213 2.34 2.127zm100.605 143.569v-1.063c.85.213 1.489.213 2.339.425 0 .213 0 .426-.212.851-.851 0-1.489-.213-2.34-2.127v1.064c-.851-.213-1.489-.213-2.34-.426 0-.212 0-.425.213-.851.851 0 1.702.213 2.34 2.127zm47.856 69.765v-1.064c.851.213 1.489.213 2.34.425 0 .213 0 .426-.213.851-.851 0-1.489-.212-2.127-1.276l-.213.213c-.425-.213-.638-.638-1.063-.851l.425-.425c.426.425.638.85.851 2.127zm365.411 10.209c-.851-.213-2.34.638-2.34-1.276l-.212.212c-.426-.212-.638-.638-1.064-.85l.426-.426c.212.426.638.638.638 1.064.851.212 2.339-.638 2.552 1.276 0 0-.213 0 0 0 .425.213.851.425 1.064.638l-.426.425c-.212-.425-.638-.638-.638-1.063zm-239.07 15.952c.851.213 2.34-.638 2.553 1.276 3.19 0 5.743.638 7.444 3.616.85.213 2.34-.638 2.34 1.276l.212-.212c.426.212.638.638 1.064.85l-.425.426c-.213-.426-.639-.638-.639-1.064-.85-.212-2.34.638-2.552-1.276-2.34-1.276-6.168 0-7.444-3.616-1.064-.212-2.553.426-2.553-1.276-.425-.213-.85-.425-1.063-.638l.425-.425c.213.212.426.638.638 1.063zm37.86 19.355v-1.063c.85.213 1.489.213 2.34.425 0 .213 0 .426-.213.851-.85 0-1.489-.213-2.34-2.127v1.064c-.85-.213-1.489-.213-2.34-.426 0-.213 0-.425.213-.851.851 0 1.702 0 2.34 2.127zm-170.369 13.613c.851.213 2.34-.638 2.34 2.127v-.851h7.231c.851 1.064 2.127 2.552 3.191 3.829h4.892c.212.425.851 1.488 1.489 2.765h6.593c-.638 1.276-1.063 2.127-1.701 3.19-2.978-2.765-7.445-1.489-10.848-4.254-2.978-2.339-7.019-3.19-10.635-5.53-.851-.213-2.339.638-2.339-2.127-.213.213-.213.638-.213.851-.851 0-1.702-.213-2.34-.425 0-.213 0-.426.213-.851.638.212 1.489.425 2.127 1.276zM-46.61 367.51v-1.064c.851.213 1.49.213 2.34.426 0 .212 0 .425-.213.85-.85 0-1.489-.212-2.34-2.127v1.064c-.85-.213-1.488-.213-2.339-.425 0-.213 0-.426.213-.851.85 0 1.489.212 2.34 2.127zM-307.8-53.84c.851.213 2.34-.638 2.34 2.127v-1.064c.851.213 1.489.213 2.34.426 0 .212 0 .425-.213.85-.851 0-1.489-.212-2.34-1.063-.851-.213-2.339.638-2.339-2.127.212.213.212.425.212.85-.85 0-1.701-.212-2.339-.425 0-.212 0-.425.212-.85.638.212 1.489.212 2.127 1.276zm245.238 1.063c.851.213 2.34-.638 2.553 1.276 2.552-.425 4.254 1.064 6.38 1.915 1.915.85 3.616 2.127 5.956 1.701 1.276-1.701 2.34-1.701 3.616 0 2.34-.425 4.254.638 6.168 2.127-.213.426-.425 1.064-.638 1.702-1.064-1.914-2.765-1.276-4.467-1.276.213.425.638.85.851 1.276.85.85 1.914 1.701 2.552 2.552l.213-.213c.425.213.638.639 1.064.851l-.426.426c-.212-.426-.638-.639-.638-1.064-1.276-.213-2.552 0-3.828-.638-4.254-2.127-8.508-4.68-13.188-5.955-1.488-.426-3.403-.851-3.828-2.978-.85-.213-2.34.638-2.34-2.127v.425c-.85 0-1.701-.212-2.34-.425 0-.213 0-.425.213-.85.638.212 1.276.425 2.127 1.275zm44.028 6.169c.851.212 2.34-.639 2.127 1.488h3.829c-.213.213-.426.638-.638.851.85.213 1.489.425 2.765.638-3.19 1.276-4.467.213-5.743-1.701-.85-.213-2.34.638-2.34-2.127v.85c-.85 0-1.701-.212-2.34-.425 0-.213 0-.425.213-.85.638.212 1.49.212 2.127 1.276zM-263.559-36.4v1.063c-.851-.212-1.489-.212-2.34-.425 0-.213 0-.425.213-.85.851 0 1.489.212 2.127 1.275l.213-.212c.425.212.638.638 1.063.85l-.425.426c-.426-.426-.851-.851-.851-2.127zM23.155 269.032v.638c-1.277-.213-2.553-.213-3.829-.426.213-.85.425-1.489.425-1.914 1.277.638 2.34 1.276 3.404 3.403v-1.063c.85.212 1.488.212 2.34.425 0 .213 0 .426-.213.851-.426-.213-1.277-.213-2.127-1.914zm-246.302-44.241c-1.914.638-4.041 1.276-4.892-1.914 1.914.851 3.403 1.276 4.892 3.616v-1.064c.851.213 1.489.213 2.34.425 0 .213 0 .426-.213.851-.638 0-1.489 0-2.127-1.914zm-45.517-67.637c-2.339-.213-3.615-.426-5.317-.638.425-1.064.851-1.702 1.276-2.765 1.276 1.063 1.914 1.701 2.765 3.19l.213-.213c.425.213.638.638 1.063.851l-.425.426c-.213-.213-.425-.639.425-.851zm-225.457-268.209c-1.914.638-4.041 1.276-4.892-1.915 1.914.851 3.403 1.277 4.892 3.616v-1.063c.851.212 1.702.212 2.34.425 0 .213 0 .426-.213.851-.638 0-1.276-.213-2.127-1.914zm127.192 215.673c.213-.213.213-.425.425-.638 1.702.638 3.403 1.489 4.892 2.127-.212.851-.212 1.063-.425 1.914-1.702-1.063-3.19-2.127-4.467-4.679v1.063c-.85-.212-1.489-.212-2.339-.425 0-.213 0-.425.212-.851.426 0 1.277 0 1.702 1.489zm261.403-116.132c2.127-.425 4.892-1.914 5.955 1.914-2.127-.638-4.041-1.276-5.743-2.764l-.212.212c-.426-.213-.638-.638-1.064-.85l.426-.426c.212.425.425.85.638 1.914zm67.637-7.019h-3.828c.212-.212.425-.638.637-.85-.85-.213-1.488-.426-2.764-.639 2.977-1.276 4.466-.425 5.53 1.702 2.34-.213 4.679.213 6.168 2.552h3.616c2.127 1.277 3.403 2.34 4.892 3.19v1.702c.85.213 1.488.213 2.34.426 0 .212 0 .425-.213.85-.851 0-1.49-.212-2.34-1.063-3.19-1.063-6.594-1.489-8.508-4.892-1.914-.213-4.254-.425-5.53-2.978zm-239.282-23.822c-2.127.426-4.892 1.915-5.956-1.914 2.127.638 4.041 1.276 5.743 2.765l.213-.213c.425.213.638.639 1.063.851l-.425.426c-.213-.426-.426-.851-.638-1.915zm-133.573-41.688v.85c-1.702-.212-3.191-.212-5.105-.425.213-1.063.425-1.488.638-2.34 1.702.639 3.191 1.277 4.467 3.617v-1.064c.851.213 1.489.213 2.339.425 0 .213 0 .426-.212.851-.638-.212-1.489-.212-2.127-1.914zm-52.962-7.657h3.829c-.213.213-.425.638-.638.85.851.213 1.489.426 2.552.639-2.977 1.489-4.254.425-5.317-1.914l-.426.425c-.212-.425-.425-.638-.85-.85l.425-.426c.213.213.425.638.425 1.276zm455.807 449l.638-.638c1.914.426 3.616.851 5.53 1.276.213 0 .213.426.426 1.064H-5.56l.85-.851c-1.063-.213-2.127-.638-2.552-1.489l-.213.213c-.425-.213-.638-.638-1.063-.851l.425-.425c.213.425.638.638.213 1.701zm-215.461-57.64l-6.38-2.127c3.19-1.489 4.679.638 6.593 1.701 1.276.426 3.191-1.063 3.616 2.127 0-.212 0-.638.213-.85 2.552.425 5.317.212 7.231 1.488 2.765 1.702 5.956 2.34 8.721 4.254-.213.638-.213 1.064-.638 2.34-5.318-2.34-10.422-4.679-15.527-7.87-1.276-.851-2.978.851-3.829-1.063zm241.835-33.819c-4.466.426-6.806-.851-8.295-3.616 2.34 1.064 4.68 2.127 6.806 3.829l.213-.213c.425.213.638.638 1.063.851l-.425.425c-.212-.212-.638-.638.638-1.276zM36.342 60.165h-3.829l1.064-1.064c-1.276-.638-2.765-1.276-4.254-2.127 3.828-1.489 4.68 1.49 6.168 3.19l.213-.212c.425.213.638.638 1.063.85l-.425.426c-.426-.425-.638-.638 0-1.063zm-483.883-146.76c0 .425 0 .638-.212 1.063-2.765-.638-5.53-1.276-8.721-1.914.213-.638.426-1.489.638-2.127 2.978 1.063 5.53 2.127 8.083 4.892v-1.064c1.276.213 2.339.213 3.616.426v.85c-1.064-.212-2.128-.212-3.404-2.126zm236.518 327.976c5.104-.851 6.381 0 7.444 3.829-1.276-1.064-2.127-1.915-3.19-2.553-1.277-.638-2.765-.85-4.041-2.552h-3.404a70.113 70.113 0 00-1.914-3.616c2.34.638 3.829 1.276 5.318 1.702-.213.638-.213 1.063-.213 3.19zm382.426-85.929c5.105-.425 6.381.213 7.445 4.041-2.553-1.488-4.892-2.765-6.594-5.53l-.638.638c-.638 0-1.489 0-2.34-.212 0-.851 0-1.489.213-2.34.851.638 1.914 1.276 1.914 3.403zM-429.036-86.595c0 .425 0 .85-.213 1.063-3.19-.638-6.381-1.276-9.571-2.127-.638-.212-.851-.85-2.34-2.34 4.892 1.277 8.508 2.34 12.124 3.616 1.914.638 3.828 1.277 6.593 2.34-3.19 1.489-4.679-.638-6.593-2.552zm239.07 327.976c-5.318.638-7.657-1.489-10.21-4.679 4.254 0 5.956 3.403 8.933 5.955v-1.063c.851.213 1.489.213 2.34.425 0 .213 0 .426-.213.851-.638-.213-1.488-.425-.85-1.489zm340.951-1.063c-4.467.638-6.381-3.616-9.784-4.467 4.466-1.063 7.231 1.064 9.146 4.679h3.828c-.213.213-.425.639-.638.851.851.213 1.489.426 2.552.638-2.765 1.489-4.041.426-5.104-1.701zM9.542 344.326c4.254.851 7.87 3.403 12.55 2.552 0 1.064 0 1.702-.214 2.34h-5.53c-1.914-1.914-5.53-1.702-6.593-4.892l-.213.213c-.425-.213-.638-.639-1.063-.851l.425-.426c.425.426.638.851.638 1.064zm-57.428-50.196c-5.317-1.489-9.996-4.042-14.463-7.232 5.317 1.489 10.635 2.978 14.463 7.232.851.212 2.34-.426 2.34 2.127 1.701-1.064 2.978-.638 4.68.212 1.063.638 3.19-.638 4.678-.85.639 1.276 1.49 2.339 2.128 3.403h4.253c1.277-2.127 0-3.616-1.489-4.68h-4.892c-6.593-3.615-12.123-7.018-18.079-9.784-2.977-1.276-5.742-2.977-8.72-4.041-1.702-.638-3.829-1.701-5.53-2.765-1.702-1.063-3.616-2.339-5.53-3.19-.851-.426-1.49-1.489-2.553-2.553 1.064-1.063 1.915-1.914 2.553-2.339 5.317 2.339 10.209 4.466 14.676 7.019 4.466 2.339 9.146 4.679 13.825 6.806 4.68 2.34 8.933 5.743 14.038 7.232l1.914-1.915v-2.339c-1.489-2.127-5.317-1.064-5.53-4.68 4.467 1.064 7.657 4.68 11.91 5.956.639.213.852 1.489 1.277 2.127-2.34 1.063-4.466 1.701-6.593 2.552 2.127 4.254 2.552 8.508 5.742 10.422-1.489 4.041 2.127 7.445.213 10.635-2.978.638-2.765 5.105-6.38 5.105-1.915-2.34.212-4.467.85-6.594-.85-1.063-1.702-1.914-2.765-2.978v-2.765c-1.276.213-2.552 0-2.978.426-1.063 1.276-1.701 2.978-2.34 4.254-1.488-1.064-2.977-2.127-4.253-3.191 1.914-2.127 3.616-4.254 5.104-6.168-1.488-1.489-2.552-2.552-3.19-3.403-2.552-.851-4.892-1.489-6.806-2.978-1.064 0-2.34.851-2.553-1.063zm-225.244-95.288c0 .426-.213.851-.213 1.276-4.892-.638-9.359-2.552-14.251-6.168 1.489 0 2.34-.425 2.978 0 3.829 1.702 7.657 3.403 11.06 6.806 3.403-.638 9.146 1.915 11.699 4.68-4.68-1.915-8.083-3.403-11.273-6.594zm264.38 53.812c5.956.851 10.635 4.679 15.527 7.657.213.213.213.638.213 1.064l.212-.213c.426.213.639.638 1.064.851l-.425.425c-.213-.425-.639-.638-.639-1.063-1.488 0-2.977.212-4.466-1.064-1.702-1.489-4.041-3.19-6.168-3.616-2.765-.425-4.254-1.701-5.318-4.041-4.679 0-8.295-2.978-12.549-4.466-.425-.213-.638-1.277-1.063-1.915.212-.425.425-.638.638-1.063 4.892 1.063 8.72 4.466 12.974 7.444zm-342.014-132.722c0-.425.213-.851.213-1.276 2.339.638 4.892.851 7.018 2.127 7.019 3.828 14.038 8.082 21.057 12.336-1.488.426-2.765.426-3.828-.213a511.758 511.758 0 01-15.102-7.869c-3.19-1.702-6.38-3.403-8.72-6.381h-6.381c0-.638 0-1.276-.213-1.276-3.615-1.702-7.231-3.403-11.06-5.318 4.467-.425 11.698 2.127 17.016 7.87zm157.182 171.433c9.146 1.276 15.739 6.168 23.184 8.082v1.702c-2.765 1.276-5.318.425-7.657-.851-4.042-2.127-7.87-5.105-12.549-6.381-.638-.213-1.064-1.063-1.702-2.978-1.914.638-4.041 1.276-4.892-1.914 1.702.851 3.19 1.489 3.616 2.34zM-307.587 122.91c-.213.425-.213 1.063-.425 1.489-2.553-.851-5.105-1.489-7.445-2.765-5.104-2.34-9.996-5.956-15.314-7.445-5.955-1.701-10.209-5.742-15.952-7.657-1.914-.638-1.914-.851-3.616-3.616.638 0 1.276-.212 1.915 0 5.104 2.765 10.847 4.68 15.739 7.657 1.063.639 2.552.639 3.616 1.489 1.276.851 2.552 1.489 4.041 2.127 5.955 2.553 11.486 5.743 17.016 10.635v-1.063c.85.212 1.488.212 2.339.425 0 .213 0 .425-.212.851-.426-.213-1.064-.213-1.702-2.127zm212.696 213.121c4.466-.851 8.082.851 11.698 2.339 4.254 1.489 7.87 4.254 12.549 5.105 2.127.425 4.892 1.489 6.594 2.765 4.892 3.829 11.272 4.467 16.164 8.508.426.425 1.064.638 1.49.638 1.913-.213 3.402.425 4.678 1.914.851.851 2.34 1.489 3.404 1.702 4.892 1.276 8.933 4.254 13.612 5.317-.213.851-.425 1.489-.425 1.915-2.34-.426-5.53-.213-6.594-1.702-1.914-2.34-4.466-1.276-6.38-2.34-2.766-1.276-4.893-4.041-8.296-3.403-4.466-2.552-9.358-4.041-14.038-5.743-4.892-1.701-8.933-4.892-14.25-5.317-6.594-3.829-14.251-5.53-19.781-12.762v1.064c-.85-.213-1.489-.213-2.34-.426 0-.212 0-.425.213-.85.638 0 1.489.212 1.702 1.276zM-364.164-52.777h-5.105c-10.209-5.742-21.482-7.657-32.117-12.123-1.063-1.49-2.339-2.765-3.403-4.254-4.466-1.064-8.295-3.403-11.911-5.956h-3.403c.213-.425.638-.638.851-1.063l-3.403-3.403c4.254 1.488 9.358 3.403 14.463 5.104 2.765 1.064 5.317 2.127 8.295 2.127 2.127 2.978 5.743 2.765 8.721 3.829 4.254 1.701 8.295 4.041 12.549 5.105 4.041 1.063 7.657 2.977 11.698 4.466 1.063.425 1.914 1.064 2.978 1.702v5.317c-.213-.213-.213-.425-.213-.85.851 0 1.702.212 2.34.425 0 .212 0 .425-.213.85-.638-.212-1.276-.212-2.127-1.276zm528.336 269.698c.212-.425.212-.851.425-1.276 4.254 0 8.295 1.914 11.486 4.041 5.742 3.829 11.911 7.019 17.653 10.635 7.019 4.254 14.251 8.295 20.845 12.974.638.426 1.914.426 3.19.851 5.105 5.318 12.124 7.87 18.505 11.273.425 1.276.85 2.127 1.701 4.041-3.403-1.914-5.743-3.19-8.295-4.466-5.743-3.191-10.847-7.019-16.59-9.784-3.829-1.914-7.657-4.254-11.486-6.168-1.489-.851-2.339-2.978-4.466-2.34-1.702-2.34-4.68-2.34-7.019-4.041-5.318-3.829-10.848-7.019-16.378-10.422-3.19-1.915-6.381-3.616-9.571-5.318zM2.949 344.539c-5.318.212-8.296-3.829-12.55-4.042-2.977-3.19-7.657-3.403-11.06-5.955-.638-.425-1.489-.638-2.127-.851-2.765-1.276-5.742-1.701-8.508-3.403-5.104-2.978-10.422-5.53-15.739-7.87-2.978-1.276-5.53-3.403-8.082-5.317-.213-.213 0-1.064 0-1.702h4.04c2.979 2.765 6.807 2.978 9.785 4.892 3.19 2.127 6.593 3.616 10.21 5.105 3.19 1.276 6.593 2.978 9.57 4.892 3.191 1.914 6.807 3.19 10.21 5.105 2.978 1.914 6.38 3.403 9.358 5.104 0-.212.213-.212.213-.425 1.49 1.063 2.765 2.552 4.68 4.467zM37.405-36.824c-2.34-.851-4.892-1.49-7.231-2.553-3.404-1.489-6.807-3.616-10.21-4.68-1.489-.425-2.765-1.063-4.041-2.126-2.552-2.127-5.317-4.68-8.72-5.318-5.956-1.488-11.273-4.466-16.804-6.806-.638-.212-1.063-1.701-1.914-3.403 2.553.425 4.041.638 5.53 1.063 2.127.639 4.254.851 5.53 2.978 3.829-.85 6.381 2.34 9.572 3.616 3.19 1.064 6.168 2.765 9.145 4.254 2.978 1.489 5.53 3.828 8.508 4.254 3.829.425 5.53 4.041 9.359 4.254 1.702 0 2.552 2.34 1.276 4.466zm-451.34 3.828c2.978.213 5.105 0 7.445.85 6.381 1.915 12.336 4.68 18.717 6.382 1.914.425 2.765 2.34 5.104 2.765a48.963 48.963 0 0110.635 3.828c3.616 1.914 8.295.638 11.06 4.467.213.213 1.277 0 1.702 0 5.53 1.063 10.422 2.765 15.739 7.657-4.253-1.276-7.018-1.914-9.996-2.765-2.765-.851-5.53-1.702-8.083-2.765-2.765-1.276-6.381-1.064-8.507-2.765-2.553-1.914-5.956-1.702-7.87-3.829-2.34-.425-4.254-.638-6.168-1.276-4.042-1.276-7.232-4.467-11.699-4.254-5.104-3.828-11.911-4.254-18.079-8.295zm124.64-25.098c-2.552 2.552-4.892 2.552-6.806.425.425-2.552.638-4.679.85-6.806 1.277-1.702 2.765-3.403 4.254-5.317h4.254c-.638 1.701-1.063 2.977-1.489 4.254 3.191 1.276 4.892-1.064 7.232-1.915 1.489 1.49 2.765 3.19 4.254 4.68-3.403-.851-1.702 4.04-4.892 3.828-1.702-.213-3.829 1.489-5.53 2.34-.638-.213-1.064-.426-2.127-1.49zM-168.91 283.07c-.212.425-.425 1.063-.638 1.488-1.063-.212-2.339-.212-3.19-.638-3.19-1.276-6.168-2.977-9.146-4.466-2.978-1.489-5.955-4.467-8.933-4.68-4.041-.212-6.168-2.977-9.359-4.041-5.53-1.914-10.634-4.679-15.952-7.231-1.701-.851-2.978-1.915-4.467-2.765 3.191.212 5.956.85 8.721 2.339 2.765 1.489 5.53 3.403 8.508 4.254 11.06 3.403 21.482 8.083 31.691 13.613.851.425 1.702 1.276 2.765 2.127zm199.296-.851c-1.489-.213-2.552-.213-3.403-.638-8.508-6.381-18.292-9.997-27.225-15.314-4.466-2.765-9.359-5.105-14.038-7.445-2.127-1.063-4.041-1.914-4.254-5.104 5.53 3.19 10.848 5.317 15.952 8.507 5.105 3.191 10.848 5.318 16.165 8.083 2.553 1.489 4.467 3.828 7.87 4.466 2.978.639 5.743 2.766 8.933 4.467v2.978zm-47.43-369.24c7.443.213 14.25 4.68 21.056 8.508.213.213.425.638.638.85L.183-76.385c-.425-.213-1.063-.425-1.914-.85-2.552-1.277-5.53-.852-8.295-2.34-2.127-1.277-4.466-2.34-7.019-.213-.85.638-2.552 0-3.828 0-.639-1.489-1.064-2.34-1.49-3.403 1.915-1.064 3.404-2.127 5.318-3.829zm-96.777 81.888c1.489-.638 3.615.638 5.53 1.914 3.828 2.127 7.444 4.892 11.06 7.232 2.127 1.276 4.254 2.552 6.593 3.829-5.742-1.064-11.06-3.404-16.59-4.254l-2.339 2.34h-3.404c.639-3.191-1.063-4.467-3.615-5.105.212-2.127-.638-4.254 2.765-5.956zm-135.7 332.443c-3.403-.425-7.657 1.064-11.273-2.552-3.616.425-7.444 1.063-11.273 1.489a361.583 361.583 0 001.489-5.105h5.105l2.339 2.34h4.254c2.127-4.68 5.743-7.019 11.486-5.53-.638 2.127-2.765 4.466-.638 6.168-.426 1.063-.851 1.914-1.489 3.19zm289.266-96.776c1.914.212 2.977 0 4.041.425 2.978.851 5.317 2.765 8.082 4.254 2.553 1.489 5.318 2.978 8.083 4.254 2.978 1.489 5.955 2.34 8.508 4.467 1.701 1.276 4.041 2.977 6.806 2.552.213 0 .425.425.85.851-1.488.851-2.977 1.701-4.253 2.552-11.06-5.743-21.482-11.911-32.117-19.355zm-475.8-123.364c3.828-1.276 6.168 1.489 8.72 1.702 2.765.213 5.318 1.276 7.87 1.914 2.765.851 5.318 2.127 8.295 2.127 1.064 3.191 5.956 1.276 6.594 4.892-.851 2.127-2.765 3.403-4.254 2.34-2.127-1.276-4.467-1.276-6.381-2.34-3.616-2.127-7.444-3.616-11.273-5.317-2.978-1.489-5.955-3.191-9.571-5.318zm406.461 123.789c0-.425.213-1.063.425-1.701 6.381-.213 10.423 5.955 16.378 6.38 5.743 3.616 11.273 7.232 17.016 10.848l.425.425c0 .213 0 .213 0 0-.638.851-1.063 1.489-1.063 1.489-11.699-5.104-22.12-11.698-33.181-17.441zm-168.242 122.726c-2.978 1.488-6.381 2.977-10.422 4.891-.851-1.276-1.489-2.339-2.127-3.615h-5.743l1.489-1.489c-.425-.426-.638-.851-1.489-1.702h6.168c.851-1.063 1.489-1.914 2.127-2.552h4.68c1.914 1.914 3.615 3.19 5.317 4.467zm359.243-42.752c5.743 3.828 12.123 6.168 16.803 11.273.425.425.638 1.276 1.276 2.552-1.489 0-2.765.425-3.403 0-2.127-1.064-4.254-2.765-6.381-3.829-3.403-1.701-5.53-5.53-9.571-6.168-.213 0-.426-.638-.851-1.276.425-.638 1.276-1.276 2.127-2.552zM-365.44-75.747a725.587 725.587 0 00-9.146-1.49c-.213 0-.213-.212-.425-.425l-.213.213c-.638-.851-1.276-1.49-1.702-2.127-6.168-.213-7.869-1.49-10.209-7.657 3.403 1.276 6.168 3.828 9.359 2.765a497.004 497.004 0 0112.336 8.72zm49.132 257.148c1.064.213 2.34 0 3.404.425 5.317 2.978 11.485 3.829 16.803 6.807 2.977-.638 4.254 2.552 6.593 3.19v1.276c-9.784-1.701-18.292-6.168-26.8-11.698zM84.624 326.247h10.209l2.552-2.553h2.978c0 .213 0 .426.213.638-.638.213-1.064.426-1.914.851-.639 1.276-1.277 2.765-1.915 4.467-3.828 2.127-7.87 1.489-11.91 1.276-.213-1.702-.213-2.978-.213-4.679zM-400.748-79.789h-6.168v-2.127h2.765c.851-1.489 1.702-2.765 2.553-3.829.85.851 1.488 1.277 2.127 1.915l-2.553 1.276c3.403 2.552 7.019 3.403 10.848 2.978 1.488 2.34 5.104 2.765 4.892 6.593-4.892-2.552-10.21-3.19-14.464-6.806zm221.842 335.208c-.213.426-.638.851-.851 1.276-3.616-1.701-7.019-3.615-10.635-5.104-3.403-1.489-6.593-3.829-10.422-4.467-.638 0-.851-.851-1.489-1.276l1.489-1.489c5.743 1.914 10.422 5.955 16.378 7.444 1.914.213 3.616 2.34 5.53 3.616zM51.23 3.588C43.786 3.8 38.681.61 33.364-1.73c-.85-.425-1.276-1.701-2.127-2.977 1.064-.213 1.702-.426 2.127-.426C37.618-3.43 41.872-1.73 45.913-.028c1.702 1.063 2.978 2.127 5.317 3.616zm-.425 305.218c-1.702-2.127-4.041-.851-6.168-1.276-2.127-.426-4.467-1.064-7.232-1.702.638-1.914 1.276-3.829 1.914-5.53 3.19 1.489 5.318 4.041 8.934 3.828 1.276 0 2.765 1.702 4.254 2.553-.426.851-.851 1.276-1.702 2.127zm-60.831-325.85v3.829c-4.041-1.064-7.87-1.915-11.698-2.978-1.064-1.064-2.34-2.127-3.403-3.403-.426-.638-.426-1.49-.638-2.978 5.53 2.34 9.784 5.743 15.739 5.53zm-77.634 372.43c1.914.425 3.19.213 4.041.851 1.277.851 2.553 1.489 4.042 2.127 3.403 1.489 6.593 3.616 10.634 3.828 1.276 2.765 4.042 1.915 5.956 2.127-.638.851-1.064 1.702-1.914 2.765-3.616-1.701-7.232-3.616-11.06-5.104-2.553-1.064-5.105-2.553-8.083-2.553-1.914-.212-2.552-1.489-3.616-4.041zM-237.397-34.06c2.127 0 3.615-.212 4.892-.212 2.765 2.34 14.25 7.87 20.418 9.571-2.552.213-4.041.638-5.317.213-6.594-2.553-13.4-4.892-19.993-9.572zM5.926-74.897c2.765 1.914 5.105 3.403 7.445 5.105.638.425.85 1.063 2.127 2.552C9.117-67.878 4.65-70.643-.88-72.77c2.765-.85 4.68-1.489 6.806-2.127zM-43.632 32.089c4.467 2.552 8.72 5.105 12.975 7.657l-.639 1.276c-5.53-2.765-11.485-4.467-17.44-8.933h5.104zm2.34 274.164c-4.68-.212-11.06-3.615-11.273-5.317.638-.638 1.063-1.276 1.701-1.914 4.68 0 6.594 4.041 9.572 7.231zm-60.193-339.249c-3.19-.213-5.105-2.552-7.657-2.765-.425-4.68-5.53-2.765-7.657-5.317 3.403-1.49 6.806 0 8.508 1.701 2.339 1.914 4.892 3.403 6.806 6.381zm-28.927-96.138a170.13 170.13 0 00-2.765 5.317c-3.19.425-5.742-.851-8.082-2.978.851-.638 1.701-1.489 2.552-2.127.851.638 1.489 1.064 1.915 1.489 2.127-.638 3.615-1.063 6.38-1.701zM-283.34 81.646c-6.381.639-8.72-.212-10.847-3.828 3.19-.638 4.041-.212 10.847 3.829zm261.403 286.289c0-.425-.213-.851-.213-1.276 1.915-.851 3.829-1.489 5.743-2.34 1.064 1.064 2.127 2.553 3.19 4.041-1.488.851-2.764 1.277-3.402 1.702-1.915-.851-3.616-1.489-5.318-2.127zm-209.718-29.565c1.276.213 2.553.213 3.616.638 2.978 1.064 5.53 3.616 9.146 2.978.638 0 1.276 1.064 2.978 2.765-6.806-.638-11.486-2.977-15.74-6.381zM-352.04 92.494c.85-.212 1.276-.425 1.701-.425 2.765 1.063 5.743 1.914 8.508 3.19.638.213.851 1.702 1.489 2.978-2.978-.638-5.105-1.276-6.381-1.489-2.34-1.701-3.616-2.978-5.317-4.254zM91.643 313.91v7.232h-2.978c-.425-1.489-.851-2.765-1.276-4.467.425-.638.85-1.701 1.489-2.765h2.764zM-202.728-36.612c-4.467-1.701-8.295-4.041-11.486-7.444 4.254 1.489 8.083 3.403 12.124 5.317-.213.851-.425 1.276-.638 2.127zM-363.101 38.47c2.553-1.49 4.68.212 6.169 1.276 1.489 1.063 4.466-.213 4.892 2.978h-5.105c-2.127-1.49-4.041-2.765-5.956-4.254zm144.633 190.575c0-.425.213-.638.213-1.064 1.064.213 2.34.213 3.191.426 3.403 1.489 5.104 2.765 8.082 6.593-4.467-2.339-7.87-4.254-11.486-5.955zm243.75-299.05c-5.105.213-8.934.638-11.911-3.19 4.466-.213 5.104-.213 11.91 3.19zM189.27 239.254c-1.064-1.489-2.127-2.765-2.765-3.616-3.616-.638-3.616-.638-6.168-4.253 2.339 1.063 4.254 1.914 6.168 2.977 1.701.851 3.19 2.127 4.679 3.191-.851.425-1.276.85-1.914 1.701zM-421.804-88.722c1.488 1.063 3.615-.426 4.466 1.914 0 .213.213.638.426 1.064h-4.042c-1.063-.851-1.914-1.49-2.765-2.34-.638-.426-1.063-1.064-2.339-2.127h5.955c-.851.638-1.063.85-1.701 1.489zm410.076 319.468l-10.209-5.742c4.467-.213 7.87 1.701 10.21 5.742zm-271.399-84.44c4.041-.212 7.87 1.276 10.635 4.467-4.467.425-7.444-2.34-10.635-4.467zM-50.438 30.387c-2.978 1.276-5.317-.213-7.444-1.701-.639-.426-.851-1.49-1.702-3.616 3.616 2.765 7.444 1.914 9.146 5.317zm-244.813-79.123c4.042 0 7.445 1.915 11.911 4.042-5.53 1.276-8.507-2.127-11.911-4.041zm371.58 297.774c5.317-.851 7.018 3.829 10.422 4.467h-4.042c-1.914-1.489-3.828-2.552-6.38-4.467zM-102.974-41.504c2.552-.425 4.68-.638 5.956 1.702l-1.915 1.914c-1.276-.213-2.765-.213-4.254-.425.213-1.064.213-1.915.213-3.19zm94.862 273.952c5.105-.638 7.02.213 8.72 4.679-2.977-1.701-5.53-2.977-8.72-4.679zm15.74 144.846c-4.041 1.063-5.53-1.276-6.806-4.042 4.892 1.064 4.891 1.064 6.806 4.042zm-437.302-465.59c-2.127-1.49-4.467-2.979-7.019-4.68 4.041-.851 5.955 1.914 8.933 2.765l-1.914 1.914zm-74.444-13.401c-1.914-1.489-3.828-2.977-6.381-5.104 1.702.212 2.978.212 3.829.638 1.702.85 3.19 2.127 4.679 3.403.213.213.213.638.213 1.063h-2.34zm187.598 229.499c3.828-1.489 5.743 2.127 8.933 2.552-.425 1.064-.638 1.489-.851 2.34-2.552-1.702-5.317-3.191-8.082-4.892zm511.533 68.488c2.977 1.489 5.742 2.977 8.72 4.466-4.041 1.489-5.955-2.127-8.933-2.339.213-1.064.213-1.489.213-2.127zm-80.187 121.236c-2.127 0-2.977-.212-3.828 0-.851.213-1.702.851-3.191 1.489 1.277-4.679 2.127-4.892 7.019-1.489zM-36.187-57.669c.638 1.064 1.063 2.127 1.701 3.403h-4.892c.213-1.276.213-2.34.425-3.403h2.766zm152.715 35.733c1.063 1.064 2.127 2.127 2.978 3.19-2.34 1.277-3.829-1.063-5.743-1.488.213-.638.213-1.064.213-1.702h2.552zm-548.329-55.939c3.616-2.552 4.466 2.34 7.019 1.915.212 0 .425.212.425.425 0 .212-.213.213-.425.638h-2.978c-1.701-1.276-2.765-2.127-4.041-2.978zM102.49-27.253l1.064-1.064c1.488.638 2.977 1.49 4.892 2.34-1.064 1.063-1.702 1.914-2.553 2.978-1.276-1.702-2.339-2.978-3.403-4.254zm-202.912-.213c-3.828.213-3.828.213-8.933-3.403 3.616.638 6.594.85 8.933 3.403zm-38.71 397.103c-2.978 1.063-4.467.638-4.467-.638.213-1.064.426-2.127.851-3.829 1.702 2.127 2.34 2.978 3.616 4.467zm135.912 4.041h-5.53c-.425-1.064-.638-2.34-1.276-4.467 2.765 1.915 4.467 2.978 6.806 4.467zm207.166-170.795c4.041-.212 4.041-.212 6.168 3.403-1.914-1.063-3.616-2.127-6.168-3.403zM17.199 290.727h4.68v2.127h-4.68v-2.127zm219.502-24.248c-2.127-1.063-3.616-1.701-5.105-2.339-.212 0 .213-1.064.213-1.702h2.978c.638 1.276 1.063 2.34 1.914 4.041zM-288.019 71.65c1.914.851 4.892.638 4.892 4.041-2.978.213-3.403-2.552-4.892-4.04zm17.654 265.87c1.489-.213 2.339-.213 3.616-.426.85 1.064 1.914 2.34 2.977 3.403-1.489 0-2.127-.425-2.977-1.063-1.064-.638-2.127-1.064-3.616-1.914zM-6.197 13.797c-.213.425-.638.85-.851 1.276-1.276-1.701-4.254-1.063-5.105-4.68 2.34 1.49 4.254 2.34 5.956 3.404zm-59.768 9.997c2.553-1.49 3.829.85 5.743 1.701-2.34 0-4.68 1.276-5.743-1.701zm-45.729-56.152c-2.127 1.489-3.404-.213-4.892-.638-1.915-.425-1.489-1.276-.851-2.34 2.127.851 3.828 1.915 5.743 2.978zm50.834 302.24c1.914 1.064 4.466.851 5.955 4.042-2.765-1.276-5.104-1.489-5.955-4.042zm-183.344 21.27c2.978-1.702 4.254.638 6.594 1.063-2.978 1.915-4.467-.425-6.594-1.063zm179.303 23.184c-1.702-1.276-3.404-1.702-2.34-3.829 1.276.638 2.34 1.276 3.828 1.915-.638.638-.85 1.063-1.488 1.914zm204.613 5.53c-1.276-.638-2.34-1.064-3.403-1.489-.213 0-.213-.425-.213-.638.213-.425.425-.851.638-1.489 1.702.425 3.19 1.064 2.978 3.616zm-291.606 37.86c-4.467.212-4.679-.213-4.466-2.978 1.276.638 2.552 1.702 4.466 2.978zM-316.308-57.456c2.127-.213 3.829-.213 4.68 2.34-1.914.212-3.616.212-4.68-2.34zm539.822 314.577c-1.489.212-2.553.212-3.616.212.425-.638.851-1.063 1.276-1.701-1.063 0-2.127-.213-3.19-.213.212-.213.425-.425.425-.638h2.765c.851.851 1.276 1.489 2.34 2.34zM-29.594 12.946c.213-.213.638-.425.85-.638.426.425.639 1.064 1.277 1.276.425.213 1.063.213 1.914.426l-2.127 2.127c-.85-1.064-1.489-2.127-1.914-3.19zm-88.694 349.246c-1.276-1.063-2.34-1.701-3.829-2.765h4.467a56.153 56.153 0 00-.638 2.765zm143.995-66.148l1.701-1.702c.639.426 1.49 1.064 2.127 1.489-1.063.851-1.488 1.489-2.127 1.915-.638-.426-1.063-1.064-1.701-1.702zM101-19.171c2.765.213 2.765.213 2.553 2.552-.639-.637-1.702-1.701-2.553-2.552zm66.361 171.007h-4.466c.212-.85.212-1.701.425-2.765 1.489.851 2.34 1.702 4.041 2.765zm30.416 89.12c1.276 1.063 2.339 1.701 3.828 2.765h-4.466c.212-.851.425-1.489.638-2.765zm-554.072-114.643c-.426 1.276-.851 1.914-1.064 2.552-1.489-.85-1.489-.851-2.765-2.552h3.829zM-89.787 7.842c2.34 1.276 3.829 1.914 5.956 2.977-2.978.426-4.68.426-5.956-2.977zm-247.152 21.056c-2.34-1.276-3.828-1.914-5.53-2.765 2.552-.85 4.254-.425 5.53 2.765zm478.14 293.52c1.063-1.489 1.489-1.914 2.127-2.977 1.063 1.063 1.701 1.701 2.765 2.977h-4.892zM-91.276-5.558c2.765-1.064 4.254-.426 5.743 2.34-2.127-.851-3.616-1.49-5.743-2.34zM54.208-28.104v-2.552c.85.212 1.489.212 2.127.425-.213.85-.425 1.489-.425 2.127h-1.702zm198.445 303.729c-2.127.426-2.978-.638-4.041-2.127 2.127-.425 2.978.638 4.041 2.127zm-612.989-139.103c-.212.426-.425.638-.638 1.064-.638-.213-1.276-.426-1.914-.851-.425-.213-.851-.851-1.276-1.276.213-.213.425-.426.638-.851l3.19 1.914zm517.063 10.21h-3.615c.212-.851.212-1.489.425-2.553 1.063.851 1.702 1.489 3.19 2.553zM-362.037-68.942c-.851-.425-1.702-.85-2.34-1.276.213-.212.213-.638.426-.85 1.063.212 2.127.212 3.615.425l-1.701 1.701zm101.456 230.562h-1.915c.213-.85.213-1.488.639-3.19.638 1.702 1.063 2.552 1.276 3.19zm65.935 134.424c1.915-.425 1.915-.425 1.702 2.552-.851-1.276-1.276-2.127-1.702-2.552zM-423.081-94.04v.638h-3.615v-.638h3.615zM2.736 360.916c-3.19 1.276-2.978 0-2.553-1.489.851.426 1.702 1.064 2.553 1.489zm-397.528-269.91v.638h-3.616v-.639h3.616zM-43.206-24.276v1.063c-1.064-.213-2.127-.213-3.19-.425v-.639h3.19zM-356.72-82.341v-.639h3.616v.639h-3.616zm-98.69-12.124c.212-.638.638-1.702 1.063-2.552.213.212.426.212.638.425v2.127h-1.701zM-28.956 40.809h1.914c-.212.851-.212 1.49-.638 3.19-.638-1.7-.85-2.552-1.276-3.19zm-14.038 329.04v-.638h3.616v.638h-3.616zM11.456-2.155h1.915c-.213.85-.213 1.489-.639 3.19-.425-1.701-.85-2.552-1.276-3.19zM-8.962-90.424v1.064c-1.064-.213-2.127-.213-3.19-.426v-.638h3.19zm-178.665 456.019c-.638-.212-1.489-.425-2.552-.85.213-.213.213-.426.425-.638h2.127v1.488zm-182.918-233.752c-1.914.425-1.914.425-1.701-2.552.85 1.276 1.276 2.127 1.701 2.552zM-82.13-19.383v.638h-2.552v-.639h2.552zm-406.035-89.545v1.063c-.639-.213-1.277-.213-2.127-.425v-.638h2.127zm302.665 82.1v1.064c-.638-.213-1.276-.213-2.127-.426v-.638h2.127zM-281-27.89c0 .425 0 .638-.213 1.063-.638-.213-1.276-.425-1.914-.425v-.638H-281zm24.885-4.254c0-.426 0-.638.213-1.064.638.213 1.276.213 1.914.426v.638h-2.127zm-72.741-1.914v1.063c-.639-.213-1.277-.213-2.127-.425v-.639h2.127zM34.002-61.073c0 .426 0 .638-.213 1.064-.638-.213-1.276-.426-1.914-.426v-.638h2.127zM-362.675-84.68c0-.425 0-.638.213-1.064.638.213 1.276.213 1.914.426v.638h-2.127zm-118.897-19.781v-1.063c.638.212 1.276.212 2.127.425v.638h-2.127zm333.294 470.908c0-.425 0-.638.213-1.063.638.212 1.276.212 1.914.425v.638h-2.127zm89.12-51.259c0 .425 0 .638-.213 1.063-.638-.213-1.276-.213-1.914-.425v-.638h2.126zm93.373-17.016v.638h-2.553v-.638h2.553zm-265.019-2.552c0 .425 0 .638-.213 1.063-.638-.213-1.276-.213-1.914-.425v-.638h2.127zm27.438-7.657c0-.426 0-.639.213-1.064.638.213 1.276.213 1.914.425v.639h-2.127zm149.525-13.613c0-.425 0-.638.212-1.063.639.212 1.277.212 1.915.425v.638h-2.127zm-28.289-13.612v-.639h2.553v.639h-2.553zm322.021.425h-.638v-2.552h.638v2.552zm-469.419-39.136c0 .425 0 .638-.212 1.063-.639-.212-1.277-.212-1.915-.425v-.638h2.127zM181.4 160.344v-.638h2.552v.638H181.4zm-447.511-1.276v-.638h2.552v.638h-2.552zm8.72.213c0-.426 0-.638.213-1.064.638.213 1.276.213 1.914.426v.638h-2.127zm-76.358-195.893v1.064c-.638-.213-1.276-.213-2.127-.426v-.638h2.127zm67.425 190.15c0 .425 0 .638-.213 1.063-.638-.212-1.276-.212-1.914-.425v-.638h2.127zm411.14-12.762v-1.063c.638.212 1.277.212 2.127.425v.638h-2.127zm-399.867-12.336v-.638h2.552v.638h-2.552zM-376.5 89.73v.637h-2.553v-.638h2.553zm14.676-1.277c0 .425 0 .638-.213 1.064-.638-.213-1.276-.213-1.914-.426v-.638h2.127zM-1.305 59.101v.638h-2.553v-.638h2.553zm-19.781-14.676c0 .425 0 .638-.213 1.064-.638-.213-1.276-.213-1.914-.426v-.638h2.127zm-51.472-24.672v1.063c-.638-.213-1.276-.213-2.127-.425v-.638h2.127zM-2.794 17.2h-.638v-2.552h.638V17.2zM-81.917-1.517c0-.425 0-.638.213-1.064.638.213 1.276.426 1.914.426v.638h-2.127zM131.204-11.94v.638h-2.552v-.638h2.552zm-545.564-94.224v.425h-1.276v-.425h1.276zm244.387-.426h.425v1.276h-.425v-1.276zm-42.114-24.885v-.425h1.277v.425h-1.277zm156.119 261.403h.425v1.276h-.425v-1.276zm-269.06-85.291v.425h-1.276v-.425h1.276zm-6.806-4.254h.425v1.276h-.425v-1.276zm8.082 86.78v-.426h1.276v.426h-1.276zm343.29-96.139v.426h-1.276v-.426h1.277zm-254.596 263.317h.426v1.277h-.426v-1.277zm349.034-179.515v-.425h1.276v.425h-1.276zM-8.75 230.959v.426h-1.276v-.426h1.276zm14.464 8.083h-.426v-1.277h.426v1.277zm67.424 72.316h-.425v-1.276h.425v1.276zm31.054 4.041v.426h-1.277v-.426h1.277zm-392.424-172.708v.425h-1.276v-.425h1.276zm10.21 9.358h.425v1.276h-.425v-1.276zM97.173 321.142h.425v1.276h-.425v-1.276zM-169.973-6.196h.425v1.276h-.425v-1.276zm64.021 337.122h-.425v-1.276h.425v1.276zM80.37-7.26h-.426v-1.276h.426v1.276zm-451.128 112.73h-.425v-1.276h.425v1.276zm-48.919-1.276h-.426v-1.277h.426v1.277zM-97.231-8.536h-.425v-1.276h.425v1.276zm-228.435 111.452h.425v1.277h-.425v-1.277zm-7.444-2.339h.425v1.276h-.425v-1.276zM23.155-17.469v-.426h1.276v.426h-1.276zm-50.622 365.623h-.425v-1.276h.425v1.276zM-251.01 161.833h.425v1.276h-.425v-1.276zm-15.952-183.982h.425v1.277h-.425v-1.277zM42.935 353.472v.425H41.66v-.425h1.276zm-116.132 2.127h.426v1.276h-.426v-1.276zm-219.927-386.68v-.426h1.276v.425h-1.276zM-411.595 90.792h.425v1.276h-.425v-1.276zm111.24-125.49v-.426h1.276v.425h-1.276zM43.999 247.336v-.426h1.276v.426h-1.276zM-272.28-40.015v.425h-1.276v-.425h1.276zm9.146-.425h.426v1.276h-.426v-1.276zM-416.912 89.09v-.425h1.276v.425h-1.276zm34.456-1.701v.425h-1.276v-.425h1.276zm476.864.425v-.425h1.276v.425h-1.276zM-23.426-48.523v.426h-1.276v-.426h1.276zm235.454 299.05v.426h-1.276v-.426h1.276zM-370.332 85.05v.425h-1.276v-.425h1.276zm67.424 47.856v.426h-1.276v-.426h1.276zm94.437-187.172v-.425h1.276v.425h-1.276zm166.328 428.157h-.425v-1.277h.425v1.277zm-358.817-449v-.426h1.276v.425h-1.276zm24.46-14.677v-.425h1.276v.425h-1.276zm-69.764-1.276v-.425h1.276v.425h-1.276zm63.808-1.276v-.425h1.276v.425h-1.276zM-244.842 168h.426v1.276h-.426V168zM-476.467-96.805h.425v1.277h-.425v-1.277zm32.542.426v.425h-1.276v-.425h1.276zm198.658 358.392v-.426h1.276v.426h-1.276z"/><path d="M40.383 383.462c0 .851-.212 1.489 0 1.914.426.851 1.277 1.489 2.127 2.552 2.34-2.552 5.53-3.403 8.72-4.253 1.915.638 2.766 4.041 6.17 2.127.637-.851 1.488-2.34 2.552-4.254 2.34 1.276 4.892 2.127 7.231-.851-2.765-1.276-2.127-5.956-6.168-6.381 1.063-.213 2.34-.425 3.403-.638V370.7c-1.063-.638-2.34-1.063-4.254-2.127-.638.638-1.276 1.489-2.127 2.553.638.85 1.064 1.488 1.276 1.914a164.51 164.51 0 01-2.977 5.743c-4.892-.213-10.848.212-15.953 4.679zM58.25 354.11c.851 2.127 1.49 3.403 2.127 5.104h4.467c2.765 1.489 4.679 2.553 7.019 3.616.85-1.063 2.127-2.339 3.615-4.254-1.276-.212-2.126-.425-2.764-.638h-2.34c-1.49-1.489-1.702-4.466-.638-6.806l-2.127-2.127c-.213-1.702-.638-3.403-.851-5.743.213-.425.425-1.701 1.064-3.403-4.042.213-6.807-3.828-11.06-2.552-.213 2.765-.213 2.765 2.126 4.892.638-.426 1.276-.851 1.702-1.276 1.489.85 2.765 1.701 4.466 2.765-2.34 4.041-1.914 7.869 1.49 11.911-2.979-.426-5.105-.851-8.296-1.489zm47.856-4.254a51.618 51.618 0 011.488-2.34c-1.276-.638-2.765-1.276-5.317-2.339a120.46 120.46 0 001.702 6.168c-.426.212-1.064.425-1.915 1.063-.425.638-1.063 1.914-1.701 3.191.213.425.425.85.851 1.914-.426 1.063-1.064 2.339-1.915 3.828l2.765 2.765 2.978-1.488c1.702-2.127.213-7.019 4.892-7.232 1.276-3.829-1.489-4.467-3.828-5.53zM6.99 322.206c.426-.851 1.276-1.915 2.127-3.191 1.064-.425 2.765-1.276 4.254-1.914-.638-4.892-1.489-5.318-5.955-3.191-1.702-1.063-3.616-1.914-5.53-3.19-2.127 4.254 1.914 7.657.212 11.486H6.99zm-.425-3.829c-.213-3.19-.213-3.19 1.489-2.765-.426.425-.851 1.276-1.49 2.765zm29.351-2.34c-.213 1.277-.426 1.702-.638 2.553H32.3c-.638-1.064-1.276-2.127-1.701-3.191-2.34-.85-3.83-.212-4.893 1.702 0 3.19 4.68 7.231 9.36 7.657 1.913-2.552 3.828-4.892 5.954-7.87-1.914-.425-3.403-.638-5.104-.851zm44.666 51.686h6.168v-2.765l2.553-2.553v-4.679c-2.127.425-4.254.638-6.594 1.063-.85-.212-2.34-.638-4.041-1.276v5.105c.638.213 1.276.425 1.914.425v4.68zm81.249-68.276c0-2.127-.212-3.616-.212-5.105h-4.467v4.254c1.489 1.276 3.191 2.978 5.105 4.041 1.914 1.064 4.254 1.489 7.657 2.553h4.041v-3.403c-4.041 0-7.232-4.042-12.124-2.34zm-54.874 80.825c-.638.638-1.489 1.701-2.552 2.765 1.276 2.977 5.317 2.339 11.06-2.127 1.064.425 2.34.85 3.616 1.489 2.127-.639 2.552-2.127 2.34-4.254-.851-.426-1.915-1.064-2.978-1.489-1.702.638-3.616 1.489-5.53 2.127-1.914.638-3.616 1.063-5.956 1.489zm75.719-240.985c1.702.638 2.765 1.276 4.041 1.702 1.702-2.127.851-3.403-1.063-4.892h-3.829l-1.701 1.701 1.063 1.064c-.851.425-1.914 1.063-2.339 1.276v4.467l3.403 3.403h3.616v-3.191c-.426-.212-1.064-.425-1.702-.638-.425-1.063-.851-2.552-1.489-4.892zm-56.364-34.669c-.639.851-1.915 2.127-3.404 4.254 4.892.213 8.934 1.063 12.975-1.489v-2.765l-1.702-1.701c-2.34.425-4.892 1.063-7.869 1.701zM84.198 73.777a219.425 219.425 0 00-4.254-2.765c-2.127-.213-5.53.638-8.295 2.34l3.616 3.615c.638-.213 2.34-.85 4.254-1.063 1.914 0 4.04.85 4.679-2.127zm-24.46 251.406c-1.276.638-2.127.851-3.828 1.489 1.276.638 2.34 1.276 2.765 1.489v4.466c1.063.639 2.34 1.277 3.616 2.127 1.701-1.063 3.403-2.127 5.105-2.977-.639-2.765-2.127-3.403-4.467-3.191-1.064-1.276-2.127-2.339-3.19-3.403zm-21.695 2.127c.638 1.702.85 2.978 1.489 4.467H49.74c1.063-2.34 0-3.616-2.127-4.679-.85.425-1.702 1.063-2.765 1.489-1.064-.851-2.127-1.702-3.403-2.978a25.35 25.35 0 01-3.403 1.701zM23.58 382.824c1.488.638 2.339 1.063 3.402 1.488-.212.213-.425.213-.638.426h9.146v-4.254c-1.063-.426-2.34-1.702-3.616-1.702-1.914 0-3.828.638-5.53 1.277-1.063.425-1.489 1.488-2.765 2.765zm69.977 3.615c-.425-1.489-.85-2.339-1.489-3.616 1.064-.638 2.34-1.488 3.829-2.552-.851-1.063-1.702-1.914-3.19-3.403-.639 1.489-.852 2.34-1.277 3.19-1.914 0-3.829.213-6.168.213 1.489 4.041 4.466 5.105 8.295 6.168zM26.982 310.72c-.638-.213-1.488-.426-2.552-.851l.638-.638c-2.552.425-5.317.851-7.87 1.489-.212 5.317-.212 5.317 4.892 3.616 1.915-.638 4.254-.213 4.892-3.616zM112.7 79.732v4.041c2.765 2.34 2.765 2.34 5.743.426v-7.445c-1.914 1.064-3.616 1.915-5.743 2.978zm44.878 289.692c.851-1.914 1.277-3.19 1.915-4.254-.213-.425-.638-.851-.851-.851h-8.933c0 1.064-.213 2.127-.213 3.403 2.765.426 5.317 1.064 8.082 1.702zM6.139 405.795c1.276-1.489 2.127-2.34 2.978-3.403-1.276-1.489-2.34-2.553-3.403-3.829.638-.851 1.063-1.276 1.489-1.914-1.277-1.276-3.616-.638-6.381 1.701 1.489 1.915 2.977 4.254 5.317 7.445zm170.369-41.901c.425-1.276.85-2.553 1.489-4.254-1.489-.851-2.978-1.489-4.254-2.34-1.915 2.127-3.403 4.041-5.318 6.381 2.978.213 5.318.213 8.083.213zm-1.277-13.187c-.425.638-.85 1.488-1.701 2.977.851.426 1.914.638 2.978 1.276-.213.213.212-.212.85-.638 1.915.638 4.254 2.978 6.381-.425-.851-.638-1.914-1.489-3.828-2.978-.851-.212-2.765-.212-4.68-.212zM-9.175 390.694c.85 1.063 1.488 1.701 1.914 2.552h8.508c-.213-4.254-4.467-2.765-6.169-4.679l-4.253 2.127zm98.053-.638c-1.49.85-2.978 1.914-4.467 2.765l2.127 2.127c2.765-.639 6.168 1.488 8.933-1.489-.85-4.042-5.317-.851-6.593-3.403zM59.951 14.435v4.68c1.276.637 2.765 1.276 4.254 2.126.85-1.914 1.489-3.403 2.127-5.317-.85-.85-1.489-2.127-2.552-2.34-.851-.213-2.34.638-3.829.851zm9.996 369.452c1.702.851 2.552 1.276 4.254 1.914h5.53c-.425-3.828-3.616-3.615-5.956-5.104-1.063 1.063-1.914 1.701-3.828 3.19zm95.501-45.729v8.295c2.766.213 2.766.213 5.105-1.914-2.127-1.489-.425-5.743-5.105-6.381zm-27.225 0c-.851 3.828-1.489 7.444-2.552 12.123 1.914-1.276 2.977-1.914 4.253-2.552-.638-1.276-1.063-2.127-1.701-3.19a249.205 249.205 0 004.466-3.829c-1.701-1.063-2.977-1.702-4.466-2.552zm94.224 18.504c-3.191.638-5.956.851-7.232 5.105 3.19-.426 6.168 1.489 8.721-1.489-.426-1.276-.851-2.127-1.489-3.616zm-77.846-8.508c0 1.064-.213 1.915-.213 3.404 2.765.638 5.317 1.276 8.082 1.914 1.277-2.553.638-4.041-1.276-5.105-2.552 1.064-2.552 1.064-6.593-.213zM47.402 31.663h2.552c.639-2.34.851-4.466-1.489-5.955h-4.04c0 .638-.426 1.276-.213 1.702.85 1.488 1.914 2.765 3.19 4.253zm-28.076 295.86h-4.679c0 .638-.212 1.489.213 1.701.85 1.489 2.127 2.765 3.19 4.042h2.34c.213-.426.425-1.064.425-1.489-.425-1.277-1.063-2.553-1.489-4.254zm193.979 61.044c.213 4.041.851 4.892 2.978 4.892 2.127 0 2.765-1.064 2.765-4.467-.213-.212-.213-.425-.426-.425h-5.317zM87.176 412.176c2.552-.638 4.892-1.277 7.444-1.915-.425-2.977-3.19-2.339-4.254-3.403-2.978.638-3.828 2.127-3.19 5.318zm129.319-251.619c-2.552 0-2.977 2.339-4.679 3.19.638 2.765 2.34 3.403 4.679 2.978a55.173 55.173 0 011.489-4.467c-.425-.425-1.063-1.063-1.489-1.701zM82.71 346.878h-3.828c-.426 1.064-1.064 2.127-1.702 3.191.425.425 1.276 1.063 1.702 1.701 1.701-.638 3.403-1.063 5.104-1.701-.212-.851-.638-1.914-1.276-3.191zM60.163 61.653v5.53h4.68c0-1.063.425-2.552.212-3.615-.85-2.34-3.19-.213-4.892-1.915zm75.507 303.73h-4.254c0 1.489-.212 2.978-.212 4.892 1.276-.213 2.552 0 3.403-.426 1.489-.85 1.914-2.339 1.063-4.466zM69.948 34.216c-2.34.85-3.19 2.552-2.34 4.892h4.041c1.49-2.34.213-3.829-1.701-4.892zm36.371 357.116c-2.552-1.064-3.616.425-4.892 1.701.851 2.553 2.552 3.191 4.892 2.553v-4.254zm110.813-66.574h7.019v-3.191h-4.466c-.426.426-1.064 1.277-2.553 3.191zm0-163.776c1.915-.851 3.191-1.489 4.68-2.127v-2.978h-4.68v5.105zm-23.396-8.295c-.638-3.829-.638-3.829-4.466-4.041-.426 4.253.212 4.679 4.466 4.041zM60.377 363.043c-1.489.638-2.34 1.276-2.978 1.489 0 2.127 1.276 2.765 4.467 2.978.425-1.064 1.063-1.915 1.489-2.978-1.064-.638-2.553-1.276-2.978-1.489zM3.374 326.034c-.638-1.063-1.063-1.914-1.489-2.552-2.765.638-3.403 2.339-3.19 4.466 3.403.426 3.403.426 4.679-1.914zm257.361 13.825c-1.702.638-3.19 1.277-5.53 2.127 2.127 1.277 3.616 2.127 5.317 2.978.638-.851 1.276-1.701 1.915-2.978-.639-.638-1.277-1.489-1.702-2.127zM84.198 70.374l2.552 1.914c1.702 0 2.34-1.063 2.553-4.68-2.34-.85-3.829 0-5.105 2.766zM32.94 331.99v-2.978c-1.064-.638-2.127-1.064-3.404-1.702-.425 1.276-1.063 2.765-1.914 4.68h5.318zm17.44 14.038c1.701-.426 3.19-.851 4.892-1.489-.851-1.489-1.277-2.552-1.702-3.829h-2.978c-.212 1.702-.212 2.978-.212 5.318zm67.423 3.615v5.743h3.191v-4.254c-.851-.425-2.127-1.064-3.191-1.489zm7.232 40.838v-2.978c-1.489 0-2.978-.213-4.254-.213-1.276 2.127-.425 3.404 1.064 4.68.851-.426 2.127-.851 3.19-1.489zM60.377 42.51c-1.489.639-2.977 1.49-4.892 2.34 1.276 1.49 2.127 2.34 2.765 3.404 2.765-1.49 3.829-2.978 2.127-5.743zM34.428 411.325c-1.063-2.765-2.552-3.403-4.68-2.765-.212 2.765-.212 2.765 1.277 4.467 1.064-.639 2.127-1.064 3.403-1.702zM10.18 328.161c-1.276.638-2.765 1.064-4.679 1.914 1.702 1.277 2.765 2.127 4.041 2.978.426-.638 1.277-1.701 2.127-3.19-.212 0-1.063-.426-1.914-.851.213-.213.213-.425.425-.851zm112.091 110.176v-5.955c-1.914.851-3.19 1.701-5.53 2.765 2.127 1.063 3.404 1.914 5.53 3.19zM24.219 14.222c.85 2.553 2.552 3.19 4.892 2.553v-2.978c-.85-.426-1.915-1.064-2.978-1.702-.638.851-1.063 1.49-1.914 2.127zm18.079 393.7c-.426.851-.851 1.701-1.276 2.765.638.638 2.126 1.701 3.615 2.978 1.49-2.978.426-4.467-2.34-5.743zm74.229-38.073c-.638-2.765-2.127-3.616-4.466-3.19-.638 3.616-.638 3.616 4.466 3.19zm25.737-264.806c.851-.425 1.914-.85 3.191-1.488-1.277-1.277-1.915-2.127-2.978-3.404-1.064 1.064-2.127 1.915-3.403 2.978 1.489.851 2.552 1.489 3.19 1.914zm133.573 263.956h3.19l1.489-1.489c-.425-1.064-1.063-1.914-1.489-2.978-1.063.638-2.127 1.064-3.19 1.702v2.765zm-44.028 52.748c1.701 0 3.19-.213 4.892-.213-.426-3.19-2.34-3.829-4.892-3.403v3.616zm-55.938-71.466c-1.064-1.489-1.915-2.552-2.765-3.828-1.064 1.063-1.915 1.701-2.978 2.552.638.851 1.063 1.702 1.701 2.553 1.064-.426 2.127-.639 4.042-1.277zm-49.559 5.105h3.191c.638-2.34.212-4.041-2.765-4.892-1.064 1.489-.426 3.191-.426 4.892zm-50.197-32.755c-1.701 0-3.19-.213-4.892-.213v3.191s.426.425.638.425c2.34.213 3.829-.638 4.254-3.403zM53.57 58.463c2.978.851 4.467.213 5.53-2.34a79.04 79.04 0 01-3.403-2.126c-.638 1.489-1.276 2.765-2.126 4.466zm114.855 323.084c1.915 1.064 3.403 1.702 4.892 2.34 1.915-2.552-1.276-3.403-1.063-5.955-1.489 1.489-2.552 2.339-3.829 3.615zm18.931-49.345h3.19l1.914-1.914c-1.488-.851-2.765-1.914-4.679-2.978-.213 1.702-.213 3.191-.425 4.892zM9.755 395.373c1.276 1.063 2.552 2.339 3.828 3.403 2.127-2.765.425-4.041-1.276-5.956l-2.553 2.553zm99.329-383.49c-1.702 1.489-2.765 2.552-3.829 3.616l1.702 1.701h3.616c-.426-1.914-.851-3.403-1.489-5.317zm93.161 319.681v-2.765h-4.892c1.488 3.403 1.489 3.403 4.892 2.765zm65.084 43.39c-.851-3.19-2.34-3.828-4.892-3.19 0 .851-.213 1.914-.213 3.19h5.105zm-112.941 40.2c1.063-1.489 1.914-2.34 3.403-4.042-2.34-.212-4.041-.212-6.806-.425 1.489 1.914 2.339 2.978 3.403 4.467zM29.96 388.567h-4.04c0 1.063-.214 2.127-.214 2.978l2.128 2.127a203.946 203.946 0 002.126-5.105zM136.309 83.136c-.638 2.978 0 4.68 2.765 5.105.426-3.19.426-3.19-2.765-5.105zM20.176 393.459c.426-3.403.426-3.403-2.552-4.892-.426 3.403-.426 3.403 2.552 4.892zm71.892 35.945v4.042c1.914 1.063 3.403.425 4.892-1.702-1.489-.638-2.978-1.276-4.892-2.34zm31.267-3.403c.85 1.702 1.489 2.978 2.127 4.467 1.063-1.064 1.914-2.127 2.977-3.191-.85-1.701-2.339-2.339-5.104-1.276zm14.25-66.999c-.638 2.978 0 4.679 2.765 5.105.426-3.404.426-3.404-2.765-5.105zm68.063 2.339V357.3s0-.213-.213-.213c-.425-.213-.638-.212-1.063-.212-1.064-.213-2.34-.639-3.616-1.064.638 2.552 2.34 3.829 4.892 5.53zM92.919 344.113c-1.914 2.553-.851 3.829.638 5.105 1.063-.638 2.127-1.064 3.403-1.702-1.489-1.063-2.765-2.339-4.041-3.403zm75.506-216.312c-1.064-1.063-1.915-2.127-3.403-3.615-.426 1.488-.426 2.127-.851 2.552-.213.425-.851.851-1.064 1.276l1.702 1.702c1.063-.426 2.127-1.064 3.616-1.915zM30.173 29.324h3.616c.425-.851 1.063-1.915 1.489-2.978-2.978-.425-2.978-.425-5.105 2.978zm171.008 114.217h-3.403c-.638 1.063-1.063 2.127-1.489 2.978.213 0 .426.425.851.425 2.127.426 3.616-.425 4.041-3.403zM51.656 421.747c2.552.213 3.19-1.063 3.616-3.403-1.277 0-2.34-.213-3.616-.213v3.616zm147.611-45.942c-1.064-1.276-1.702-2.127-2.34-2.765-.425-.426-1.064-.426-1.489-.638-.638 3.828-.638 3.828 3.829 3.403zM52.932 31.663c-.213 1.276-.213 2.34-.426 3.829h3.616c.425-2.553-1.063-3.19-3.19-3.829zm98.691 324.361c1.063.851 1.914 1.702 3.403 2.765.213-1.914.425-2.977.638-5.104-1.702 1.063-2.765 1.701-4.041 2.339zm17.015 66.999l-1.064-1.063c-1.276-.426-1.914 1.489-1.701 4.467.85-1.064 1.914-2.127 2.765-3.404zm-46.368-23.609c.638.851 1.276 1.702 2.127 2.765.851-.851 1.489-1.701 2.765-3.19-1.914-.213-2.978-.426-4.254-.638-.212.425-.425.85-.638 1.063zm104.859-224.607c1.064 2.552 1.489 4.041 2.34 5.956.851-1.702 1.276-2.765 1.914-3.829-.85-.425-1.914-.851-4.254-2.127zm7.657 174.411h4.467c-.851-1.489-1.276-2.553-2.127-4.041-.851 1.488-1.489 2.552-2.34 4.041zM48.04 403.455c-.638-2.552-1.276-3.828-3.616-3.616-.212.638-.212 1.276-.425 1.915 1.276.425 2.34.85 4.041 1.701zm168.88-258.212c.212-3.191-1.064-3.829-2.978-4.254-.213.638-.425 1.063-.851 2.127.851.212 1.489.212 2.127.638.426 0 .638.425 1.702 1.489z"/><path d="M92.919 386.227c.212.425.638.638.85 1.063l.426-.425c-.426-.213-.638-.638-1.064-.851 0 .213 0 .213-.212.213z"/></g><defs><clipPath id="clip0_2523_11"><path fill="#fff" d="M0 0h302v442H0z"/></clipPath></defs></svg>